<svg width="19" height="16" viewBox="0 0 19 16" fill="none" xmlns="http://www.w3.org/2000/svg">
<path d="M15.682 1.18406C15.999 0.882307 16.4207 0.715487 16.8583 0.718798C17.2959 0.72211 17.7152 0.895293 18.0275 1.2018C18.3399 1.50832 18.5209 1.92418 18.5325 2.36165C18.544 2.79912 18.3852 3.22397 18.0895 3.54656L9.112 14.7741C8.95763 14.9403 8.77131 15.0738 8.5642 15.1664C8.35708 15.259 8.13341 15.3089 7.90657 15.3131C7.67972 15.3173 7.45436 15.2757 7.24395 15.1908C7.03355 15.1059 6.84242 14.9795 6.682 14.8191L0.7285 8.86556C0.562705 8.71107 0.429725 8.52477 0.337493 8.31777C0.245261 8.11077 0.195667 7.88732 0.191669 7.66073C0.187671 7.43415 0.229352 7.20909 0.314224 6.99896C0.399097 6.78884 0.525422 6.59796 0.685664 6.43772C0.845906 6.27748 1.03678 6.15115 1.24691 6.06628C1.45703 5.98141 1.68209 5.93973 1.90868 5.94373C2.13526 5.94772 2.35871 5.99732 2.56571 6.08955C2.77271 6.18178 2.95901 6.31476 3.1135 6.48056L7.825 11.1898L15.6392 1.23356C15.6533 1.21623 15.6683 1.19971 15.6842 1.18406H15.682Z" fill="white"/>
</svg>
