<svg width="287" height="148" viewBox="0 0 287 148" fill="none" xmlns="http://www.w3.org/2000/svg">
<path d="M240.151 85.1H189.118C183.567 85.1 179.095 79.846 179.095 74C179.095 68.154 183.567 62.9 189.118 62.9H276.29C281.841 62.9 286.313 58.016 286.313 52.17C286.313 46.324 281.841 41.44 276.29 41.44H208.046C202.495 41.44 198.023 36.926 198.023 31.08C198.023 25.234 202.495 20.72 208.046 20.72H230.328C235.879 20.72 240.351 16.206 240.351 10.36C240.351 4.514 235.879 0 230.328 0H76.2691C70.7185 0 66.246 4.514 66.246 10.36C66.246 16.206 70.7185 20.72 76.2691 20.72H86.2921C91.8427 20.72 96.3151 25.234 96.3151 31.08C96.3151 36.926 91.8427 41.44 86.2921 41.44H10.1011C4.55055 41.44 0.078125 46.324 0.078125 52.17C0.078125 58.016 4.55055 62.9 10.1011 62.9H29.0291C34.5797 62.9 39.0521 68.154 39.0521 74C39.0521 79.846 34.5398 85.1 29.0291 85.1H17.888C12.3374 85.1 7.86493 89.614 7.86493 95.46C7.86493 101.306 12.3374 105.82 17.888 105.82H69.6004C75.151 105.82 79.6234 110.704 79.6234 116.55C79.6234 122.396 75.151 127.28 69.6004 127.28H61.8136C56.263 127.28 51.7905 131.794 51.7905 137.64C51.7905 143.486 56.263 148 61.8136 148H123.07H129.778H145.352H182.449H220.105C225.656 148 230.128 143.486 230.128 137.64C230.128 131.794 225.656 127.28 220.105 127.28H211.201C205.65 127.28 201.177 122.396 201.177 116.55C201.177 110.704 205.65 105.82 211.201 105.82H240.151C245.702 105.82 250.174 101.306 250.174 95.46C250.174 89.614 245.702 85.1 240.151 85.1ZM145.911 20.572C146.47 20.683 147.029 20.72 147.588 20.72H144.234C144.793 20.72 145.352 20.646 145.911 20.572Z" fill="#F9F9F9"/>
</svg>
