<svg width="426" height="220" viewBox="0 0 426 220" fill="none" xmlns="http://www.w3.org/2000/svg">
<path d="M357.193 126.5H281.39C273.146 126.5 266.503 118.69 266.503 110C266.503 101.31 273.146 93.5 281.39 93.5H410.871C419.116 93.5 425.759 86.24 425.759 77.55C425.759 68.86 419.116 61.6 410.871 61.6H309.505C301.26 61.6 294.617 54.89 294.617 46.2C294.617 37.51 301.26 30.8 309.505 30.8H342.602C350.846 30.8 357.489 24.09 357.489 15.4C357.489 6.71 350.846 0 342.602 0H113.771C105.527 0 98.8835 6.71 98.8835 15.4C98.8835 24.09 105.527 30.8 113.771 30.8H128.659C136.903 30.8 143.546 37.51 143.546 46.2C143.546 54.89 136.903 61.6 128.659 61.6H15.4892C7.24464 61.6 0.601562 68.86 0.601562 77.55C0.601562 86.24 7.24464 93.5 15.4892 93.5H43.6036C51.8482 93.5 58.4913 101.31 58.4913 110C58.4913 118.69 51.7889 126.5 43.6036 126.5H27.0553C18.8107 126.5 12.1676 133.21 12.1676 141.9C12.1676 150.59 18.8107 157.3 27.0553 157.3H103.866C112.11 157.3 118.753 164.56 118.753 173.25C118.753 181.94 112.11 189.2 103.866 189.2H92.2998C84.0553 189.2 77.4122 195.91 77.4122 204.6C77.4122 213.29 84.0553 220 92.2998 220H183.286H193.251H216.383H271.485H327.417C335.662 220 342.305 213.29 342.305 204.6C342.305 195.91 335.662 189.2 327.417 189.2H314.19C305.946 189.2 299.303 181.94 299.303 173.25C299.303 164.56 305.946 157.3 314.19 157.3H357.193C365.437 157.3 372.08 150.59 372.08 141.9C372.08 133.21 365.437 126.5 357.193 126.5ZM217.213 30.58C218.044 30.745 218.874 30.8 219.705 30.8H214.722C215.553 30.8 216.383 30.69 217.213 30.58Z" fill="#F9F9F9"/>
</svg>
