<svg width="44" height="42" viewBox="0 0 44 42" fill="none" xmlns="http://www.w3.org/2000/svg">
<path d="M43.6654 13.332C43.6656 12.9388 43.5584 12.553 43.3555 12.2162L37.486 2.4337C37.0994 1.79419 36.5546 1.26494 35.9042 0.896864C35.2538 0.52879 34.5197 0.334275 33.7724 0.332031H10.225C8.7127 0.332031 7.2892 1.13803 6.51136 2.43586L0.641865 12.2162C0.438955 12.553 0.331828 12.9388 0.332032 13.332C0.332032 15.5095 1.16837 17.479 2.4987 19.0044V39.332C2.4987 39.9067 2.72697 40.4578 3.1333 40.8641C3.53963 41.2704 4.09073 41.4987 4.66537 41.4987H21.9987C22.5733 41.4987 23.1244 41.2704 23.5308 40.8641C23.9371 40.4578 24.1654 39.9067 24.1654 39.332V28.4987H32.832V39.332C32.832 39.9067 33.0603 40.4578 33.4666 40.8641C33.873 41.2704 34.4241 41.4987 34.9987 41.4987H39.332C39.9067 41.4987 40.4578 41.2704 40.8641 40.8641C41.2704 40.4578 41.4987 39.9067 41.4987 39.332V19.0044C42.829 17.479 43.6654 15.5095 43.6654 13.332ZM39.2974 13.8759C39.1641 14.9222 38.6541 15.884 37.8629 16.5815C37.0717 17.279 36.0535 17.6643 34.9987 17.6654C32.6089 17.6654 30.6654 15.7219 30.6654 13.332C30.6654 13.1847 30.6112 13.0547 30.5809 12.916L30.6242 12.9074L28.9754 4.66536H33.7724L39.2974 13.8759ZM17.6805 13.4729L19.4399 4.66536H24.5554L26.3169 13.4729C26.241 15.7977 24.3387 17.6654 21.9987 17.6654C19.6587 17.6654 17.7564 15.7977 17.6805 13.4729ZM10.225 4.66536H15.022L13.3754 12.9074L13.4187 12.916C13.3862 13.0547 13.332 13.1847 13.332 13.332C13.332 15.7219 11.3885 17.6654 8.9987 17.6654C7.94395 17.6643 6.9257 17.279 6.13449 16.5815C5.34328 15.884 4.83332 14.9222 4.70003 13.8759L10.225 4.66536ZM17.6654 30.6654H8.9987V24.1654H17.6654V30.6654Z" fill="white"/>
</svg>
