<svg width="43" height="42" viewBox="0 0 43 42" fill="none" xmlns="http://www.w3.org/2000/svg">
<path d="M17.4499 1.00024C15.1973 0.55851 12.8707 0.676806 10.6745 1.34473C8.47825 2.01266 6.4797 3.20976 4.85444 4.83086C3.12086 6.55677 1.87202 8.70851 1.23339 11.0699C0.594757 13.4313 0.588824 15.9192 1.21619 18.2836C1.84428 17.7415 2.5999 17.3679 3.41203 17.1981C4.22416 17.0283 5.06615 17.0677 5.85885 17.3127C6.65156 17.5577 7.36896 18.0002 7.94364 18.5987C8.51831 19.1971 8.93139 19.9319 9.14406 20.7339C9.80678 20.6381 10.4821 20.6796 11.1281 20.8558C11.7741 21.032 12.377 21.3392 12.8992 21.7583C13.4215 22.1773 13.852 22.6993 14.164 23.2918C14.476 23.8843 14.6628 24.5346 14.7128 25.2024C15.8805 25.2852 16.9792 25.7859 17.8079 26.6127C18.6366 27.4395 19.1397 28.5371 19.2252 29.7046C20.1571 29.7701 21.0505 30.1023 21.7989 30.6615C22.5473 31.2206 23.119 31.9833 23.4459 32.8584C23.7729 33.7336 23.8412 34.6843 23.6428 35.5972C23.4443 36.5101 22.9875 37.3467 22.3268 38.0071L21.5337 38.7969L23.8658 41.0007C24.1772 41.2956 24.5914 41.4571 25.0202 41.4508C25.4489 41.4445 25.8583 41.2709 26.1608 40.967C26.4406 40.6856 26.6101 40.3132 26.6386 39.9175C26.6671 39.5217 26.5527 39.1289 26.3161 38.8104L26.1878 38.6821C26.1307 38.6252 26.0777 38.5643 26.0292 38.4999L25.6883 38.1556C25.3715 37.838 25.1937 37.4077 25.1937 36.9592C25.1937 36.5106 25.3715 36.0803 25.6883 35.7627C25.8444 35.6063 26.0299 35.4822 26.234 35.3975C26.4382 35.3128 26.657 35.2692 26.878 35.2692C27.099 35.2692 27.3178 35.3128 27.522 35.3975C27.7261 35.4822 27.9116 35.6063 28.0677 35.7627L28.5402 36.2352C28.6414 36.3365 28.7359 36.4377 28.8237 36.5457L29.0768 36.8022C29.2249 36.9514 29.401 37.0698 29.5951 37.1506C29.7891 37.2314 29.9972 37.273 30.2074 37.273C30.4176 37.273 30.6258 37.2314 30.8198 37.1506C31.0139 37.0698 31.19 36.9514 31.3381 36.8022C31.6383 36.5005 31.8069 36.0922 31.8069 35.6666C31.8069 35.2409 31.6383 34.8326 31.3381 34.5309L30.8318 34.0246C30.6699 33.8624 30.5427 33.669 30.4579 33.456C30.3732 33.2431 30.3328 33.0151 30.3391 32.786C30.3391 32.4533 30.4375 32.128 30.6219 31.8511C30.8063 31.5742 31.0684 31.3579 31.3753 31.2295C31.6822 31.1011 32.0203 31.0663 32.3469 31.1295C32.6736 31.1926 32.9743 31.3509 33.2112 31.5845L33.5959 31.9692C33.7603 32.1345 33.9556 32.2656 34.1708 32.355C34.386 32.4445 34.6167 32.4905 34.8498 32.4905C35.0828 32.4905 35.3135 32.4445 35.5287 32.355C35.7439 32.2656 35.9392 32.1345 36.1036 31.9692C36.4352 31.6349 36.6212 31.183 36.6212 30.7121C36.6212 30.2411 36.4352 29.7892 36.1036 29.4549L36.0192 29.3671C35.9135 29.275 35.8111 29.1794 35.7121 29.0802L33.0964 26.4545C32.7807 26.137 32.6035 25.7075 32.6035 25.2597C32.6035 24.812 32.7807 24.3825 33.0964 24.065C33.2526 23.9086 33.438 23.7844 33.6421 23.6998C33.8463 23.6151 34.0651 23.5715 34.2861 23.5715C34.5071 23.5715 34.726 23.6151 34.9301 23.6998C35.1343 23.7844 35.3197 23.9086 35.4758 24.065L37.9362 26.5287C37.9945 26.5746 38.0497 26.6242 38.1016 26.6772L38.3041 26.8797C38.827 27.3057 39.4894 27.5222 40.163 27.4873C40.8365 27.4524 41.473 27.1685 41.9491 26.6907C42.4608 26.1765 42.7481 25.4806 42.7481 24.7552C42.7481 24.0297 42.4608 23.3338 41.9491 22.8196L39.4583 20.3187C39.4244 20.2897 39.3918 20.2593 39.3604 20.2276L29.2624 9.96086H26.6772L20.8992 14.3551C18.1047 16.4814 14.1154 15.9414 11.9858 13.1469C11.4791 12.483 11.1083 11.7258 10.8947 10.9184C10.681 10.1111 10.6286 9.26958 10.7405 8.442C10.8524 7.61441 11.1264 6.81701 11.5469 6.09545C11.9673 5.37388 12.5259 4.7423 13.1907 4.23686L17.4499 0.996861V1.00024Z" fill="white"/>
</svg>
