<svg width="29" height="29" viewBox="0 0 29 29" fill="none" xmlns="http://www.w3.org/2000/svg">
<path d="M21.8409 1.87793L26.8833 7.13418V27.1224H8.04688V27.1877H26.9476V7.20034L21.8409 1.87793Z" fill="#909090"/>
<path d="M21.7783 1.8125H7.98242V27.1223H26.8832V7.13491L21.7774 1.8125" fill="#F4F4F4"/>
<path d="M7.84367 3.17188H2.05273V9.35884H20.2684V3.17188H7.84367Z" fill="#7A7B7C"/>
<path d="M20.3647 9.25351H2.16992V3.06201H20.3647V9.25351Z" fill="#DD2025"/>
<path d="M8.204 4.10889H7.01953V8.45889H7.95116V6.99167L8.15687 7.00345C8.35677 7.00001 8.55478 6.9642 8.74322 6.89742C8.90843 6.84059 9.06042 6.75088 9.19 6.6337C9.32186 6.52207 9.42582 6.38118 9.49359 6.22226C9.58449 5.95809 9.61695 5.67733 9.58875 5.39939C9.58309 5.20083 9.54828 5.00419 9.48544 4.81576C9.42823 4.67974 9.34333 4.55712 9.23614 4.4557C9.12895 4.35429 9.00182 4.2763 8.86284 4.2267C8.74268 4.1832 8.61853 4.15163 8.49219 4.13245C8.39651 4.11769 8.2999 4.10981 8.20309 4.10889H8.204ZM8.03181 6.18782H7.95116V4.84657H8.12606C8.20326 4.84101 8.28072 4.85286 8.35271 4.88125C8.42471 4.90964 8.48941 4.95385 8.54203 5.01061C8.65107 5.15652 8.70932 5.33414 8.70787 5.51629C8.70787 5.73923 8.70787 5.94132 8.50669 6.08361C8.36175 6.16332 8.19677 6.19922 8.03181 6.18692" fill="#464648"/>
<path d="M11.3579 4.09716C11.2573 4.09716 11.1594 4.10441 11.0905 4.10712L10.8748 4.11256H10.168V8.46256H10.9999C11.3178 8.47128 11.6344 8.41739 11.9315 8.30397C12.1707 8.2091 12.3825 8.05618 12.5478 7.859C12.7085 7.66004 12.8239 7.42838 12.8858 7.18022C12.957 6.89916 12.9917 6.61011 12.9891 6.32019C13.0067 5.97777 12.9802 5.63451 12.9103 5.29884C12.8439 5.05177 12.7197 4.82405 12.5478 4.63456C12.4129 4.48155 12.2478 4.35813 12.0629 4.27206C11.9041 4.19858 11.7371 4.14442 11.5654 4.11075C11.4971 4.09947 11.428 4.09431 11.3588 4.09534L11.3579 4.09716ZM11.1938 7.66325H11.1032V4.8865H11.115C11.3018 4.865 11.4909 4.89871 11.6587 4.98347C11.7817 5.08164 11.8819 5.20532 11.9524 5.34597C12.0285 5.49399 12.0723 5.65645 12.0811 5.82266C12.0892 6.02203 12.0811 6.18516 12.0811 6.32019C12.0848 6.47573 12.0747 6.6313 12.0512 6.78509C12.0232 6.94299 11.9716 7.09576 11.898 7.23822C11.8147 7.37067 11.7022 7.48228 11.569 7.56447C11.4572 7.63679 11.3248 7.67052 11.192 7.66053" fill="#464648"/>
<path d="M15.7959 4.11279H13.5938V8.46279H14.5254V6.73729H15.7035V5.92892H14.5254V4.92117H15.7941V4.11279" fill="#464648"/>
<path d="M19.7381 18.356C19.7381 18.356 22.6273 17.8322 22.6273 18.8191C22.6273 19.806 20.8374 19.4045 19.7381 18.356ZM17.6021 18.4312C17.1431 18.5326 16.6958 18.6811 16.2672 18.8744L16.6297 18.0587C16.9922 17.2431 17.3683 16.1312 17.3683 16.1312C17.8009 16.8592 18.3041 17.5428 18.8709 18.172C18.4435 18.2358 18.0199 18.3229 17.6021 18.433V18.4312ZM16.4584 12.5406C16.4584 11.6806 16.7366 11.4458 16.9532 11.4458C17.1698 11.4458 17.4136 11.5501 17.4218 12.2968C17.3512 13.0477 17.194 13.7879 16.9532 14.5026C16.6235 13.9025 16.4528 13.228 16.4575 12.5433L16.4584 12.5406ZM12.2453 22.0707C11.359 21.5406 14.104 19.9084 14.6015 19.8558C14.5988 19.8567 13.1733 22.6253 12.2453 22.0707ZM23.471 18.936C23.4619 18.8454 23.3804 17.8422 21.595 17.8847C20.8509 17.8728 20.1071 17.9252 19.372 18.0415C18.6599 17.3241 18.0467 16.515 17.5486 15.6354C17.8625 14.7287 18.0524 13.7837 18.1132 12.8261C18.087 11.7386 17.8269 11.1151 16.9931 11.1241C16.1594 11.1332 16.0379 11.8627 16.1476 12.9484C16.255 13.678 16.4576 14.3903 16.7502 15.0672C16.7502 15.0672 16.3651 16.2662 15.8558 17.4588C15.3465 18.6514 14.9985 19.2767 14.9985 19.2767C14.1128 19.5651 13.2791 19.9934 12.5289 20.5455C11.7822 21.2406 11.4786 21.7744 11.8719 22.3082C12.2108 22.7685 13.3971 22.8727 14.4574 21.4835C15.0208 20.7659 15.5355 20.0114 15.998 19.2251C15.998 19.2251 17.6148 18.7819 18.1178 18.6605C18.6207 18.5391 19.2288 18.443 19.2288 18.443C19.2288 18.443 20.7051 19.9283 22.1288 19.8758C23.5526 19.8232 23.4837 19.0248 23.4746 18.9378" fill="#DD2025"/>
<path d="M21.709 1.88232V7.20473H26.8139L21.709 1.88232Z" fill="#909090"/>
<path d="M21.7773 1.8125V7.13491H26.8822L21.7773 1.8125Z" fill="#F4F4F4"/>
<path d="M8.13369 4.03906H6.94922V8.38906H7.88447V6.92275L8.09109 6.93453C8.29099 6.93109 8.489 6.89528 8.67744 6.8285C8.84264 6.77165 8.99462 6.68194 9.12422 6.56478C9.25509 6.45285 9.3581 6.31199 9.42509 6.15334C9.51599 5.88917 9.54845 5.60841 9.52025 5.33047C9.51459 5.13192 9.47978 4.93527 9.41694 4.74684C9.35973 4.61082 9.27483 4.4882 9.16764 4.38678C9.06045 4.28537 8.93332 4.20738 8.79434 4.15778C8.67363 4.11386 8.54887 4.08198 8.42188 4.06263C8.3262 4.04786 8.22959 4.03999 8.13278 4.03906H8.13369ZM7.9615 6.118H7.88084V4.77675H8.05666C8.13385 4.77118 8.21131 4.78303 8.28331 4.81143C8.35531 4.83982 8.42001 4.88403 8.47263 4.94078C8.58166 5.0867 8.63991 5.26432 8.63847 5.44647C8.63847 5.66941 8.63847 5.8715 8.43728 6.01378C8.29234 6.0935 8.12736 6.12939 7.96241 6.11709" fill="white"/>
<path d="M11.2888 4.02733C11.1882 4.02733 11.0903 4.03458 11.0214 4.0373L10.8084 4.04274H10.1016V8.39274H10.9335C11.2514 8.40145 11.568 8.34757 11.8651 8.23414C12.1043 8.13928 12.3161 7.98636 12.4814 7.78918C12.6421 7.59021 12.7575 7.35856 12.8194 7.11039C12.8906 6.82934 12.9253 6.54029 12.9227 6.25036C12.9403 5.90794 12.9138 5.56468 12.8439 5.22902C12.7775 4.98194 12.6533 4.75423 12.4814 4.56474C12.3465 4.41173 12.1814 4.2883 11.9965 4.20224C11.8377 4.12876 11.6707 4.0746 11.499 4.04093C11.4307 4.02965 11.3616 4.02449 11.2924 4.02552L11.2888 4.02733ZM11.1274 7.59343H11.0368V4.81668H11.0486C11.2354 4.79518 11.4245 4.82889 11.5923 4.91364C11.7153 5.01182 11.8155 5.13549 11.886 5.27614C11.9621 5.42417 12.0059 5.58663 12.0147 5.75283C12.0228 5.95221 12.0147 6.11533 12.0147 6.25036C12.0183 6.40591 12.0083 6.56148 11.9847 6.71527C11.9568 6.87316 11.9052 7.02593 11.8316 7.16839C11.7483 7.30085 11.6358 7.41245 11.5026 7.49464C11.3908 7.56696 11.2584 7.6007 11.1256 7.59071" fill="white"/>
<path d="M15.7256 4.04297H13.5234V8.39297H14.4551V6.66747H15.6332V5.85909H14.4551V4.85134H15.7238V4.04297" fill="white"/>
</svg>
