<svg width="342" height="192" viewBox="0 0 342 192" fill="none" xmlns="http://www.w3.org/2000/svg">
<g clip-path="url(#clip0_509_5741)">
<g clip-path="url(#clip1_509_5741)">
<path d="M273.151 114.1H222.118C216.567 114.1 212.095 108.846 212.095 103C212.095 97.154 216.567 91.9 222.118 91.9H309.29C314.841 91.9 319.313 87.016 319.313 81.17C319.313 75.324 314.841 70.44 309.29 70.44H241.046C235.495 70.44 231.023 65.926 231.023 60.08C231.023 54.234 235.495 49.72 241.046 49.72H263.328C268.879 49.72 273.351 45.206 273.351 39.36C273.351 33.514 268.879 29 263.328 29H109.269C103.718 29 99.246 33.514 99.246 39.36C99.246 45.206 103.718 49.72 109.269 49.72H119.292C124.843 49.72 129.315 54.234 129.315 60.08C129.315 65.926 124.843 70.44 119.292 70.44H43.1011C37.5505 70.44 33.0781 75.324 33.0781 81.17C33.0781 87.016 37.5505 91.9 43.1011 91.9H62.0291C67.5797 91.9 72.0521 97.154 72.0521 103C72.0521 108.846 67.5397 114.1 62.0291 114.1H50.888C45.3374 114.1 40.8649 118.614 40.8649 124.46C40.8649 130.306 45.3374 134.82 50.888 134.82H102.6C108.151 134.82 112.623 139.704 112.623 145.55C112.623 151.396 108.151 156.28 102.6 156.28H94.8136C89.263 156.28 84.7905 160.794 84.7905 166.64C84.7905 172.486 89.263 177 94.8136 177H156.07H162.778H178.352H215.449H253.105C258.656 177 263.128 172.486 263.128 166.64C263.128 160.794 258.656 156.28 253.105 156.28H244.201C238.65 156.28 234.177 151.396 234.177 145.55C234.177 139.704 238.65 134.82 244.201 134.82H273.151C278.702 134.82 283.174 130.306 283.174 124.46C283.174 118.614 278.702 114.1 273.151 114.1ZM178.911 49.572C179.47 49.683 180.029 49.72 180.588 49.72H177.234C177.793 49.72 178.352 49.646 178.911 49.572Z" fill="#F9F9F9"/>
<path d="M329.098 114.102H312.326C306.855 114.102 302.383 118.69 302.383 124.462C302.383 130.234 306.815 134.822 312.326 134.822H329.098C334.568 134.822 339.041 130.234 339.041 124.462C339.001 118.69 334.568 114.102 329.098 114.102Z" fill="#F9F9F9"/>
<path d="M62.8278 156.281H41.9432C36.4325 156.281 32 160.869 32 166.641C32 172.413 36.4325 177.001 41.9432 177.001H62.8677C68.3385 177.001 72.8109 172.413 72.8109 166.641C72.7709 160.869 68.3385 156.281 62.8278 156.281Z" fill="#F9F9F9"/>
<path d="M77.0439 49.72H81.7958C87.2665 49.72 91.739 45.132 91.739 39.36C91.739 33.588 87.3065 29 81.8357 29H77.0838C71.5731 29 67.1406 33.588 67.1406 39.36C67.1406 45.132 71.5731 49.72 77.0439 49.72Z" fill="#F9F9F9"/>
</g>
<path d="M18.9279 56.2513C16.1355 56.2513 13.875 53.9889 13.875 51.194C13.875 48.3992 16.1355 46.1367 18.9279 46.1367C21.7203 46.1367 23.9807 48.3992 23.9807 51.194C23.9807 53.9889 21.7203 56.2513 18.9279 56.2513ZM18.9279 47.9112C17.1106 47.9112 15.6479 49.3752 15.6479 51.194C15.6479 53.0129 17.1106 54.4768 18.9279 54.4768C20.7451 54.4768 22.2078 53.0129 22.2078 51.194C22.2078 49.3752 20.7451 47.9112 18.9279 47.9112Z" fill="url(#paint0_linear_509_5741)"/>
<path d="M322.545 192.001C319.753 192.001 317.492 189.739 317.492 186.944C317.492 184.149 319.753 181.887 322.545 181.887C325.337 181.887 327.598 184.149 327.598 186.944C327.598 189.739 325.337 192.001 322.545 192.001ZM322.545 183.661C320.728 183.661 319.265 185.125 319.265 186.944C319.265 188.763 320.728 190.227 322.545 190.227C324.362 190.227 325.825 188.763 325.825 186.944C325.825 185.125 324.362 183.661 322.545 183.661Z" fill="url(#paint1_linear_509_5741)"/>
<path d="M238.772 10.1146C235.979 10.1146 233.719 7.85212 233.719 5.0573C233.719 2.26248 235.979 0 238.772 0C241.564 0 243.824 2.26248 243.824 5.0573C243.824 7.85212 241.564 10.1146 238.772 10.1146ZM238.772 1.77449C236.954 1.77449 235.492 3.23845 235.492 5.0573C235.492 6.87615 236.954 8.34011 238.772 8.34011C240.589 8.34011 242.052 6.87615 242.052 5.0573C242.052 3.23845 240.589 1.77449 238.772 1.77449Z" fill="url(#paint2_linear_509_5741)"/>
<path d="M111.565 38.2393C106.734 38.2393 102.789 34.2911 102.789 29.4556C102.789 24.6201 106.734 20.6719 111.565 20.6719C116.396 20.6719 120.341 24.6201 120.341 29.4556C120.341 34.2911 116.396 38.2393 111.565 38.2393ZM111.565 22.4464C107.709 22.4464 104.562 25.5961 104.562 29.4556C104.562 33.3151 107.709 36.4649 111.565 36.4649C115.421 36.4649 118.568 33.3151 118.568 29.4556C118.568 25.5961 115.421 22.4464 111.565 22.4464Z" fill="url(#paint3_linear_509_5741)"/>
<path d="M33.9982 140.54C31.2058 140.54 28.9453 138.278 28.9453 135.483C28.9453 132.688 31.2058 130.426 33.9982 130.426C36.7906 130.426 39.0511 132.688 39.0511 135.483C39.0511 138.278 36.7906 140.54 33.9982 140.54ZM33.9982 132.2C32.1809 132.2 30.7183 133.664 30.7183 135.483C30.7183 137.302 32.1809 138.766 33.9982 138.766C35.8155 138.766 37.2781 137.302 37.2781 135.483C37.2781 133.664 35.8155 132.2 33.9982 132.2Z" fill="url(#paint4_linear_509_5741)"/>
<path d="M174.105 172.834L178.626 168.309C178.981 167.954 178.981 167.422 178.626 167.067C178.271 166.712 177.74 166.712 177.385 167.067L172.864 171.592L168.343 167.067C167.988 166.712 167.456 166.712 167.102 167.067C166.747 167.422 166.747 167.954 167.102 168.309L171.623 172.834L167.102 177.359C166.747 177.714 166.747 178.246 167.102 178.601C167.279 178.779 167.501 178.867 167.722 178.867C167.944 178.867 168.166 178.779 168.343 178.601L172.864 174.076L177.385 178.601C177.562 178.779 177.784 178.867 178.005 178.867C178.227 178.867 178.449 178.779 178.626 178.601C178.981 178.246 178.981 177.714 178.626 177.359L174.105 172.834Z" fill="url(#paint5_linear_509_5741)"/>
<path d="M320.814 117.828L323.031 115.61C323.385 115.255 323.385 114.723 323.031 114.368C322.676 114.013 322.144 114.013 321.79 114.368L319.573 116.586L317.402 114.368C317.047 114.013 316.515 114.013 316.16 114.368C315.806 114.723 315.806 115.255 316.16 115.61L318.332 117.828L316.16 120.002C315.806 120.357 315.806 120.889 316.16 121.244C316.338 121.421 316.559 121.51 316.781 121.51C317.003 121.51 317.224 121.421 317.402 121.244L319.573 119.07L321.79 121.244C321.967 121.421 322.189 121.51 322.41 121.51C322.632 121.51 322.853 121.421 323.031 121.244C323.385 120.889 323.385 120.357 323.031 120.002L320.814 117.828Z" fill="url(#paint6_linear_509_5741)"/>
<path d="M178.537 38.4178L180.753 36.1997C181.108 35.8448 181.108 35.3125 180.753 34.9576C180.399 34.6027 179.867 34.6027 179.512 34.9576L177.296 37.1757L175.124 34.9576C174.77 34.6027 174.238 34.6027 173.883 34.9576C173.529 35.3125 173.529 35.8448 173.883 36.1997L176.055 38.4178L173.883 40.5916C173.529 40.9465 173.529 41.4788 173.883 41.8337C174.06 42.0112 174.282 42.0999 174.504 42.0999C174.725 42.0999 174.947 42.0112 175.124 41.8337L177.296 39.66L179.512 41.8337C179.689 42.0112 179.911 42.0999 180.133 42.0999C180.354 42.0999 180.576 42.0112 180.753 41.8337C181.108 41.4788 181.108 40.9465 180.753 40.5916L178.537 38.4178Z" fill="url(#paint7_linear_509_5741)"/>
<path d="M321.213 22.3129C319.75 22.3129 318.598 21.1151 318.598 19.6955C318.598 18.2759 319.794 17.0781 321.213 17.0781C322.675 17.0781 323.828 18.2759 323.828 19.6955C323.828 21.1151 322.675 22.3129 321.213 22.3129ZM321.213 17.9654C320.238 17.9654 319.484 18.7639 319.484 19.6955C319.484 20.6715 320.282 21.4256 321.213 21.4256C322.188 21.4256 322.941 20.6271 322.941 19.6955C322.941 18.7195 322.188 17.9654 321.213 17.9654Z" fill="#58C6FA"/>
<path d="M339.385 103.051C337.922 103.051 336.77 101.853 336.77 100.434C336.77 98.9698 337.966 97.8164 339.385 97.8164C340.847 97.8164 342 99.0142 342 100.434C342 101.853 340.847 103.051 339.385 103.051ZM339.385 98.7037C338.41 98.7037 337.656 99.5022 337.656 100.434C337.656 101.41 338.454 102.164 339.385 102.164C340.36 102.164 341.113 101.365 341.113 100.434C341.113 99.4578 340.36 98.7037 339.385 98.7037Z" fill="#58C6FA"/>
<path d="M195.777 162.055C194.581 162.055 193.605 161.079 193.605 159.881C193.605 158.683 194.581 157.707 195.777 157.707C196.974 157.707 197.949 158.683 197.949 159.881C197.949 161.079 196.974 162.055 195.777 162.055ZM195.777 158.594C195.068 158.594 194.492 159.171 194.492 159.881C194.492 160.591 195.068 161.167 195.777 161.167C196.486 161.167 197.063 160.591 197.063 159.881C197.063 159.171 196.486 158.594 195.777 158.594Z" fill="#58C6FA"/>
<path d="M90.2851 14.7733C89.0884 14.7733 88.1133 13.7973 88.1133 12.5995C88.1133 11.4018 89.0884 10.4258 90.2851 10.4258C91.4819 10.4258 92.457 11.4018 92.457 12.5995C92.457 13.7973 91.4819 14.7733 90.2851 14.7733ZM90.2851 11.313C89.576 11.313 88.9998 11.8897 88.9998 12.5995C88.9998 13.3093 89.576 13.886 90.2851 13.886C90.9943 13.886 91.5705 13.3093 91.5705 12.5995C91.5705 11.8897 90.9943 11.313 90.2851 11.313Z" fill="#58C6FA"/>
<path d="M36.6562 167.82C35.4595 167.82 34.4844 166.844 34.4844 165.646C34.4844 164.449 35.4595 163.473 36.6562 163.473C37.853 163.473 38.8281 164.449 38.8281 165.646C38.8281 166.844 37.853 167.82 36.6562 167.82ZM36.6562 164.36C35.947 164.36 35.3708 164.937 35.3708 165.646C35.3708 166.356 35.947 166.933 36.6562 166.933C37.3654 166.933 37.9416 166.356 37.9416 165.646C37.9416 164.937 37.3654 164.36 36.6562 164.36Z" fill="#58C6FA"/>
<path d="M147.111 9.35935L146.49 8.73828L144.895 10.291L143.343 8.73828L142.723 9.35935L144.274 10.912L142.723 12.5091L143.343 13.1301L144.895 11.5331L146.49 13.1301L147.111 12.5091L145.559 10.912L147.111 9.35935Z" fill="#58C6FA"/>
<path d="M339.029 164.629L338.408 164.008L336.812 165.56L335.261 164.008L334.641 164.629L336.192 166.182L334.641 167.779L335.261 168.4L336.812 166.803L338.408 168.4L339.029 167.779L337.477 166.182L339.029 164.629Z" fill="#58C6FA"/>
<path d="M257.265 17.1655L253.504 20.9297L254.131 21.5571L257.892 17.7928L257.265 17.1655Z" fill="#58C6FA"/>
<path d="M254.131 17.1656L253.504 17.793L257.265 21.5572L257.892 20.9298L254.131 17.1656Z" fill="#58C6FA"/>
<path d="M4.38803 120.707L3.7675 120.086L2.17185 121.639L0.620529 120.086L0 120.707L1.55132 122.26L0 123.857L0.620529 124.478L2.17185 122.881L3.7675 124.478L4.38803 123.857L2.8367 122.26L4.38803 120.707Z" fill="#58C6FA"/>
<path d="M38.9622 57.7148L38.3417 57.0938L36.7461 58.6464L35.1947 57.0938L34.5742 57.7148L36.1255 59.2675L34.5742 60.8645L35.1947 61.4856L36.7461 59.8886L38.3417 61.4856L38.9622 60.8645L37.4109 59.2675L38.9622 57.7148Z" fill="#58C6FA"/>
<path d="M174 73.1641C191.032 73.1641 204.839 86.9712 204.839 104.004C204.839 121.033 191.032 134.84 174 134.84C156.967 134.84 143.16 121.033 143.16 104.004C143.16 86.9712 156.967 73.1641 174 73.1641ZM174 77.7891C170.533 77.7515 167.094 78.4017 163.881 79.7022C160.668 81.0026 157.744 82.9275 155.28 85.3653C152.815 87.8032 150.859 90.7056 149.524 93.9045C148.188 97.1035 147.501 100.536 147.501 104.002C147.501 107.468 148.188 110.901 149.524 114.1C150.859 117.298 152.815 120.201 155.28 122.639C157.744 125.077 160.668 127.001 163.881 128.302C167.094 129.602 170.533 130.253 174 130.215C180.882 130.109 187.446 127.301 192.276 122.397C197.105 117.493 199.812 110.886 199.812 104.004C199.812 97.1207 197.105 90.5139 192.276 85.6098C187.446 80.7057 180.882 77.8977 174 77.7921V77.7891ZM174 108.619C179.029 108.619 183.743 110.639 187.199 114.157C187.605 114.599 187.822 115.181 187.806 115.781C187.791 116.38 187.542 116.95 187.114 117.37C186.686 117.79 186.112 118.028 185.512 118.032C184.913 118.037 184.335 117.808 183.9 117.394C182.61 116.078 181.069 115.033 179.369 114.321C177.668 113.609 175.843 113.244 174 113.247C172.152 113.245 170.323 113.612 168.62 114.328C166.917 115.044 165.374 116.094 164.084 117.416C163.871 117.633 163.618 117.806 163.338 117.925C163.059 118.044 162.759 118.107 162.455 118.111C162.151 118.114 161.85 118.057 161.568 117.944C161.286 117.83 161.029 117.663 160.812 117.45C160.595 117.237 160.422 116.984 160.303 116.705C160.184 116.425 160.121 116.125 160.118 115.821C160.115 115.518 160.171 115.216 160.285 114.934C160.398 114.652 160.566 114.396 160.778 114.179C162.5 112.417 164.556 111.018 166.827 110.064C169.098 109.109 171.537 108.619 174 108.622V108.619ZM164.75 93.9827C165.265 93.9682 165.778 94.057 166.258 94.2441C166.738 94.4311 167.176 94.7126 167.545 95.0718C167.915 95.431 168.208 95.8606 168.409 96.3353C168.609 96.81 168.713 97.32 168.713 97.8354C168.713 98.3507 168.609 98.8607 168.409 99.3354C168.208 99.8101 167.915 100.24 167.545 100.599C167.176 100.958 166.738 101.24 166.258 101.427C165.778 101.614 165.265 101.703 164.75 101.688C163.727 101.688 162.747 101.282 162.024 100.559C161.302 99.8363 160.895 98.856 160.895 97.8338C160.895 96.8116 161.302 95.8313 162.024 95.1085C162.747 94.3857 163.727 93.9796 164.75 93.9796V93.9827ZM183.25 93.9827C183.765 93.9682 184.278 94.057 184.758 94.2441C185.238 94.4311 185.676 94.7126 186.045 95.0718C186.415 95.431 186.708 95.8606 186.909 96.3353C187.109 96.81 187.213 97.32 187.213 97.8354C187.213 98.3507 187.109 98.8607 186.909 99.3354C186.708 99.8101 186.415 100.24 186.045 100.599C185.676 100.958 185.238 101.24 184.758 101.427C184.278 101.614 183.765 101.703 183.25 101.688C182.247 101.66 181.294 101.241 180.595 100.522C179.896 99.8024 179.504 98.8387 179.504 97.8354C179.504 96.832 179.896 95.8683 180.595 95.1489C181.294 94.4294 182.247 94.0111 183.25 93.9827Z" fill="url(#paint8_linear_509_5741)"/>
</g>
<defs>
<linearGradient id="paint0_linear_509_5741" x1="18.9279" y1="46.1367" x2="18.9279" y2="56.2513" gradientUnits="userSpaceOnUse">
<stop stop-color="#D9F4D2"/>
<stop offset="1" stop-color="#58C6FA"/>
</linearGradient>
<linearGradient id="paint1_linear_509_5741" x1="322.545" y1="181.887" x2="322.545" y2="192.001" gradientUnits="userSpaceOnUse">
<stop stop-color="#D9F4D2"/>
<stop offset="1" stop-color="#58C6FA"/>
</linearGradient>
<linearGradient id="paint2_linear_509_5741" x1="238.772" y1="0" x2="238.772" y2="10.1146" gradientUnits="userSpaceOnUse">
<stop stop-color="#D9F4D2"/>
<stop offset="1" stop-color="#58C6FA"/>
</linearGradient>
<linearGradient id="paint3_linear_509_5741" x1="111.565" y1="20.6719" x2="111.565" y2="38.2393" gradientUnits="userSpaceOnUse">
<stop stop-color="#D9F4D2"/>
<stop offset="1" stop-color="#58C6FA"/>
</linearGradient>
<linearGradient id="paint4_linear_509_5741" x1="33.9982" y1="130.426" x2="33.9982" y2="140.54" gradientUnits="userSpaceOnUse">
<stop stop-color="#D9F4D2"/>
<stop offset="1" stop-color="#58C6FA"/>
</linearGradient>
<linearGradient id="paint5_linear_509_5741" x1="172.864" y1="166.801" x2="172.864" y2="178.867" gradientUnits="userSpaceOnUse">
<stop stop-color="#D9F4D2"/>
<stop offset="1" stop-color="#58C6FA"/>
</linearGradient>
<linearGradient id="paint6_linear_509_5741" x1="319.596" y1="114.102" x2="319.596" y2="121.51" gradientUnits="userSpaceOnUse">
<stop stop-color="#D9F4D2"/>
<stop offset="1" stop-color="#58C6FA"/>
</linearGradient>
<linearGradient id="paint7_linear_509_5741" x1="177.318" y1="34.6914" x2="177.318" y2="42.0999" gradientUnits="userSpaceOnUse">
<stop stop-color="#D9F4D2"/>
<stop offset="1" stop-color="#58C6FA"/>
</linearGradient>
<linearGradient id="paint8_linear_509_5741" x1="174" y1="73.1641" x2="174" y2="134.84" gradientUnits="userSpaceOnUse">
<stop stop-color="#58C6FA"/>
<stop offset="1" stop-color="#D9F4D2"/>
</linearGradient>
<clipPath id="clip0_509_5741">
<rect width="342" height="192" fill="white"/>
</clipPath>
<clipPath id="clip1_509_5741">
<rect width="307" height="148" fill="white" transform="translate(32 29)"/>
</clipPath>
</defs>
</svg>
