<svg width="342" height="192" viewBox="0 0 342 192" fill="none" xmlns="http://www.w3.org/2000/svg">
<g clip-path="url(#clip0_509_5709)">
<path d="M18.9279 56.2513C16.1355 56.2513 13.875 53.9889 13.875 51.194C13.875 48.3992 16.1355 46.1367 18.9279 46.1367C21.7203 46.1367 23.9807 48.3992 23.9807 51.194C23.9807 53.9889 21.7203 56.2513 18.9279 56.2513ZM18.9279 47.9112C17.1106 47.9112 15.6479 49.3752 15.6479 51.194C15.6479 53.0129 17.1106 54.4768 18.9279 54.4768C20.7451 54.4768 22.2078 53.0129 22.2078 51.194C22.2078 49.3752 20.7451 47.9112 18.9279 47.9112Z" fill="url(#paint0_linear_509_5709)"/>
<path d="M322.545 192.001C319.753 192.001 317.492 189.739 317.492 186.944C317.492 184.149 319.753 181.887 322.545 181.887C325.337 181.887 327.598 184.149 327.598 186.944C327.598 189.739 325.337 192.001 322.545 192.001ZM322.545 183.661C320.728 183.661 319.265 185.125 319.265 186.944C319.265 188.763 320.728 190.227 322.545 190.227C324.362 190.227 325.825 188.763 325.825 186.944C325.825 185.125 324.362 183.661 322.545 183.661Z" fill="url(#paint1_linear_509_5709)"/>
<path d="M238.772 10.1146C235.979 10.1146 233.719 7.85212 233.719 5.0573C233.719 2.26248 235.979 0 238.772 0C241.564 0 243.824 2.26248 243.824 5.0573C243.824 7.85212 241.564 10.1146 238.772 10.1146ZM238.772 1.77449C236.954 1.77449 235.492 3.23845 235.492 5.0573C235.492 6.87615 236.954 8.34011 238.772 8.34011C240.589 8.34011 242.052 6.87615 242.052 5.0573C242.052 3.23845 240.589 1.77449 238.772 1.77449Z" fill="url(#paint2_linear_509_5709)"/>
<path d="M111.565 38.2393C106.734 38.2393 102.789 34.2911 102.789 29.4556C102.789 24.6201 106.734 20.6719 111.565 20.6719C116.396 20.6719 120.341 24.6201 120.341 29.4556C120.341 34.2911 116.396 38.2393 111.565 38.2393ZM111.565 22.4464C107.709 22.4464 104.562 25.5961 104.562 29.4556C104.562 33.3151 107.709 36.4649 111.565 36.4649C115.421 36.4649 118.568 33.3151 118.568 29.4556C118.568 25.5961 115.421 22.4464 111.565 22.4464Z" fill="url(#paint3_linear_509_5709)"/>
<path d="M33.9982 140.54C31.2058 140.54 28.9453 138.278 28.9453 135.483C28.9453 132.688 31.2058 130.426 33.9982 130.426C36.7906 130.426 39.0511 132.688 39.0511 135.483C39.0511 138.278 36.7906 140.54 33.9982 140.54ZM33.9982 132.2C32.1809 132.2 30.7183 133.664 30.7183 135.483C30.7183 137.302 32.1809 138.766 33.9982 138.766C35.8155 138.766 37.2781 137.302 37.2781 135.483C37.2781 133.664 35.8155 132.2 33.9982 132.2Z" fill="url(#paint4_linear_509_5709)"/>
<path d="M174.105 172.834L178.626 168.309C178.981 167.954 178.981 167.422 178.626 167.067C178.271 166.712 177.74 166.712 177.385 167.067L172.864 171.592L168.343 167.067C167.988 166.712 167.456 166.712 167.102 167.067C166.747 167.422 166.747 167.954 167.102 168.309L171.623 172.834L167.102 177.359C166.747 177.714 166.747 178.246 167.102 178.601C167.279 178.779 167.501 178.867 167.722 178.867C167.944 178.867 168.166 178.779 168.343 178.601L172.864 174.076L177.385 178.601C177.562 178.779 177.784 178.867 178.005 178.867C178.227 178.867 178.449 178.779 178.626 178.601C178.981 178.246 178.981 177.714 178.626 177.359L174.105 172.834Z" fill="url(#paint5_linear_509_5709)"/>
<path d="M320.814 117.828L323.031 115.61C323.385 115.255 323.385 114.723 323.031 114.368C322.676 114.013 322.144 114.013 321.79 114.368L319.573 116.586L317.402 114.368C317.047 114.013 316.515 114.013 316.16 114.368C315.806 114.723 315.806 115.255 316.16 115.61L318.332 117.828L316.16 120.002C315.806 120.357 315.806 120.889 316.16 121.244C316.338 121.421 316.559 121.51 316.781 121.51C317.003 121.51 317.224 121.421 317.402 121.244L319.573 119.07L321.79 121.244C321.967 121.421 322.189 121.51 322.41 121.51C322.632 121.51 322.853 121.421 323.031 121.244C323.385 120.889 323.385 120.357 323.031 120.002L320.814 117.828Z" fill="url(#paint6_linear_509_5709)"/>
<path d="M178.537 38.4178L180.753 36.1997C181.108 35.8448 181.108 35.3125 180.753 34.9576C180.399 34.6027 179.867 34.6027 179.512 34.9576L177.296 37.1757L175.124 34.9576C174.77 34.6027 174.238 34.6027 173.883 34.9576C173.529 35.3125 173.529 35.8448 173.883 36.1997L176.055 38.4178L173.883 40.5916C173.529 40.9465 173.529 41.4788 173.883 41.8337C174.06 42.0112 174.282 42.0999 174.504 42.0999C174.725 42.0999 174.947 42.0112 175.124 41.8337L177.296 39.66L179.512 41.8337C179.689 42.0112 179.911 42.0999 180.133 42.0999C180.354 42.0999 180.576 42.0112 180.753 41.8337C181.108 41.4788 181.108 40.9465 180.753 40.5916L178.537 38.4178Z" fill="url(#paint7_linear_509_5709)"/>
<path d="M321.213 22.3129C319.75 22.3129 318.598 21.1151 318.598 19.6955C318.598 18.2759 319.794 17.0781 321.213 17.0781C322.675 17.0781 323.828 18.2759 323.828 19.6955C323.828 21.1151 322.675 22.3129 321.213 22.3129ZM321.213 17.9654C320.238 17.9654 319.484 18.7639 319.484 19.6955C319.484 20.6715 320.282 21.4256 321.213 21.4256C322.188 21.4256 322.941 20.6271 322.941 19.6955C322.941 18.7195 322.188 17.9654 321.213 17.9654Z" fill="#58C6FA"/>
<path d="M339.385 103.051C337.922 103.051 336.77 101.853 336.77 100.434C336.77 98.9698 337.966 97.8164 339.385 97.8164C340.847 97.8164 342 99.0142 342 100.434C342 101.853 340.847 103.051 339.385 103.051ZM339.385 98.7037C338.41 98.7037 337.656 99.5022 337.656 100.434C337.656 101.41 338.454 102.164 339.385 102.164C340.36 102.164 341.113 101.365 341.113 100.434C341.113 99.4578 340.36 98.7037 339.385 98.7037Z" fill="#58C6FA"/>
<path d="M195.777 162.055C194.581 162.055 193.605 161.079 193.605 159.881C193.605 158.683 194.581 157.707 195.777 157.707C196.974 157.707 197.949 158.683 197.949 159.881C197.949 161.079 196.974 162.055 195.777 162.055ZM195.777 158.594C195.068 158.594 194.492 159.171 194.492 159.881C194.492 160.591 195.068 161.167 195.777 161.167C196.486 161.167 197.063 160.591 197.063 159.881C197.063 159.171 196.486 158.594 195.777 158.594Z" fill="#58C6FA"/>
<path d="M90.2851 14.7733C89.0884 14.7733 88.1133 13.7973 88.1133 12.5995C88.1133 11.4018 89.0884 10.4258 90.2851 10.4258C91.4819 10.4258 92.457 11.4018 92.457 12.5995C92.457 13.7973 91.4819 14.7733 90.2851 14.7733ZM90.2851 11.313C89.576 11.313 88.9998 11.8897 88.9998 12.5995C88.9998 13.3093 89.576 13.886 90.2851 13.886C90.9943 13.886 91.5705 13.3093 91.5705 12.5995C91.5705 11.8897 90.9943 11.313 90.2851 11.313Z" fill="#58C6FA"/>
<path d="M36.6562 167.82C35.4595 167.82 34.4844 166.844 34.4844 165.646C34.4844 164.449 35.4595 163.473 36.6562 163.473C37.853 163.473 38.8281 164.449 38.8281 165.646C38.8281 166.844 37.853 167.82 36.6562 167.82ZM36.6562 164.36C35.947 164.36 35.3708 164.937 35.3708 165.646C35.3708 166.356 35.947 166.933 36.6562 166.933C37.3654 166.933 37.9416 166.356 37.9416 165.646C37.9416 164.937 37.3654 164.36 36.6562 164.36Z" fill="#58C6FA"/>
<path d="M147.111 9.35935L146.49 8.73828L144.895 10.291L143.343 8.73828L142.723 9.35935L144.274 10.912L142.723 12.5091L143.343 13.1301L144.895 11.5331L146.49 13.1301L147.111 12.5091L145.559 10.912L147.111 9.35935Z" fill="#58C6FA"/>
<path d="M339.029 164.629L338.408 164.008L336.812 165.56L335.261 164.008L334.641 164.629L336.192 166.182L334.641 167.779L335.261 168.4L336.812 166.803L338.408 168.4L339.029 167.779L337.477 166.182L339.029 164.629Z" fill="#58C6FA"/>
<path d="M257.265 17.1655L253.504 20.9297L254.131 21.5571L257.892 17.7928L257.265 17.1655Z" fill="#58C6FA"/>
<path d="M254.131 17.1656L253.504 17.793L257.265 21.5572L257.892 20.9298L254.131 17.1656Z" fill="#58C6FA"/>
<path d="M4.38803 120.707L3.7675 120.086L2.17185 121.639L0.620529 120.086L0 120.707L1.55132 122.26L0 123.857L0.620529 124.478L2.17185 122.881L3.7675 124.478L4.38803 123.857L2.8367 122.26L4.38803 120.707Z" fill="#58C6FA"/>
<path d="M38.9622 57.7148L38.3417 57.0938L36.7461 58.6464L35.1947 57.0938L34.5742 57.7148L36.1255 59.2675L34.5742 60.8645L35.1947 61.4856L36.7461 59.8886L38.3417 61.4856L38.9622 60.8645L37.4109 59.2675L38.9622 57.7148Z" fill="#58C6FA"/>
<path d="M181.102 105.074C182.104 105.087 183.097 104.898 184.025 104.521C184.952 104.143 185.795 103.583 186.502 102.874L193.577 95.7993C194.043 95.3309 194.304 94.6973 194.304 94.0368C194.304 93.3763 194.043 92.7427 193.577 92.2743C193.345 92.04 193.068 91.854 192.764 91.7271C192.459 91.6001 192.132 91.5348 191.802 91.5348C191.472 91.5348 191.145 91.6001 190.841 91.7271C190.536 91.854 190.26 92.04 190.027 92.2743L182.877 99.3243C182.645 99.5586 182.368 99.7446 182.064 99.8715C181.759 99.9984 181.432 100.064 181.102 100.064C180.772 100.064 180.445 99.9984 180.141 99.8715C179.836 99.7446 179.56 99.5586 179.327 99.3243L188.177 90.4993C188.41 90.2662 188.595 89.9895 188.721 89.6849C188.847 89.3804 188.912 89.0539 188.912 88.7243C188.912 88.3946 188.847 88.0682 188.721 87.7637C188.595 87.4591 188.41 87.1824 188.177 86.9493C187.944 86.7162 187.667 86.5313 187.363 86.4051C187.058 86.279 186.732 86.2141 186.402 86.2141C186.073 86.2141 185.746 86.279 185.442 86.4051C185.137 86.5313 184.86 86.7162 184.627 86.9493L175.802 95.7993C175.337 95.3309 175.075 94.6973 175.075 94.0368C175.075 93.3763 175.337 92.7427 175.802 92.2743L182.877 85.1993C183.11 84.9662 183.295 84.6895 183.421 84.3849C183.547 84.0804 183.612 83.7539 183.612 83.4243C183.612 83.0946 183.547 82.7682 183.421 82.4637C183.295 82.1591 183.11 81.8824 182.877 81.6493C182.644 81.4162 182.367 81.2313 182.063 81.1051C181.758 80.979 181.432 80.9141 181.102 80.9141C180.773 80.9141 180.446 80.979 180.142 81.1051C179.837 81.2313 179.56 81.4162 179.327 81.6493L172.252 88.7243C170.848 90.1305 170.059 92.0368 170.059 94.0243C170.059 96.0118 170.848 97.918 172.252 99.3243L169.002 102.549L148.327 81.7993L148.077 81.6493C147.949 81.5378 147.806 81.4452 147.652 81.3743L147.202 81.1993L146.902 80.9993H146.227C146.078 80.9755 145.926 80.9755 145.777 80.9993C145.626 81.0544 145.483 81.1301 145.352 81.2243L144.952 81.4743H144.777L144.627 81.7243C144.521 81.8563 144.429 81.9987 144.352 82.1493C144.279 82.3017 144.22 82.4608 144.177 82.6243V82.8993C143.571 87.1278 143.957 91.4395 145.307 95.4926C146.656 99.5456 148.932 103.229 151.952 106.249L158.552 112.824L145.027 126.324C144.793 126.557 144.607 126.833 144.48 127.138C144.353 127.443 144.288 127.769 144.288 128.099C144.288 128.429 144.353 128.756 144.48 129.061C144.607 129.365 144.793 129.642 145.027 129.874C145.261 130.106 145.538 130.289 145.842 130.414C146.147 130.538 146.473 130.601 146.802 130.599C147.131 130.601 147.457 130.538 147.762 130.414C148.067 130.289 148.344 130.106 148.577 129.874L163.752 114.924L170.827 107.849L175.827 102.849C177.222 104.259 179.119 105.059 181.102 105.074ZM161.977 109.624L155.402 103.024C151.798 99.3711 149.542 94.6025 149.002 89.4993L165.527 105.999L161.977 109.624ZM177.577 111.049C177.106 110.575 176.467 110.308 175.799 110.305C175.13 110.303 174.489 110.566 174.015 111.037C173.541 111.508 173.273 112.147 173.271 112.815C173.268 113.484 173.531 114.125 174.002 114.599L189.752 130.349C190.23 130.784 190.857 131.017 191.502 130.999C191.831 131.001 192.157 130.938 192.462 130.814C192.767 130.689 193.044 130.506 193.277 130.274C193.511 130.042 193.697 129.765 193.824 129.461C193.951 129.156 194.017 128.829 194.017 128.499C194.017 128.169 193.951 127.843 193.824 127.538C193.697 127.233 193.511 126.957 193.277 126.724L177.577 111.049Z" fill="url(#paint8_linear_509_5709)"/>
</g>
<defs>
<linearGradient id="paint0_linear_509_5709" x1="18.9279" y1="46.1367" x2="18.9279" y2="56.2513" gradientUnits="userSpaceOnUse">
<stop stop-color="#D9F4D2"/>
<stop offset="1" stop-color="#58C6FA"/>
</linearGradient>
<linearGradient id="paint1_linear_509_5709" x1="322.545" y1="181.887" x2="322.545" y2="192.001" gradientUnits="userSpaceOnUse">
<stop stop-color="#D9F4D2"/>
<stop offset="1" stop-color="#58C6FA"/>
</linearGradient>
<linearGradient id="paint2_linear_509_5709" x1="238.772" y1="0" x2="238.772" y2="10.1146" gradientUnits="userSpaceOnUse">
<stop stop-color="#D9F4D2"/>
<stop offset="1" stop-color="#58C6FA"/>
</linearGradient>
<linearGradient id="paint3_linear_509_5709" x1="111.565" y1="20.6719" x2="111.565" y2="38.2393" gradientUnits="userSpaceOnUse">
<stop stop-color="#D9F4D2"/>
<stop offset="1" stop-color="#58C6FA"/>
</linearGradient>
<linearGradient id="paint4_linear_509_5709" x1="33.9982" y1="130.426" x2="33.9982" y2="140.54" gradientUnits="userSpaceOnUse">
<stop stop-color="#D9F4D2"/>
<stop offset="1" stop-color="#58C6FA"/>
</linearGradient>
<linearGradient id="paint5_linear_509_5709" x1="172.864" y1="166.801" x2="172.864" y2="178.867" gradientUnits="userSpaceOnUse">
<stop stop-color="#D9F4D2"/>
<stop offset="1" stop-color="#58C6FA"/>
</linearGradient>
<linearGradient id="paint6_linear_509_5709" x1="319.596" y1="114.102" x2="319.596" y2="121.51" gradientUnits="userSpaceOnUse">
<stop stop-color="#D9F4D2"/>
<stop offset="1" stop-color="#58C6FA"/>
</linearGradient>
<linearGradient id="paint7_linear_509_5709" x1="177.318" y1="34.6914" x2="177.318" y2="42.0999" gradientUnits="userSpaceOnUse">
<stop stop-color="#D9F4D2"/>
<stop offset="1" stop-color="#58C6FA"/>
</linearGradient>
<linearGradient id="paint8_linear_509_5709" x1="169.101" y1="80.9141" x2="169.101" y2="131" gradientUnits="userSpaceOnUse">
<stop stop-color="#58C6FA"/>
<stop offset="1" stop-color="#D9F4D2"/>
</linearGradient>
<clipPath id="clip0_509_5709">
<rect width="342" height="192" fill="white"/>
</clipPath>
</defs>
</svg>
