<svg width="373" height="209" viewBox="0 0 373 209" fill="none" xmlns="http://www.w3.org/2000/svg">
<g clip-path="url(#clip0_106_1640)">
<path d="M20.6417 61.232C17.5963 61.232 15.1309 58.7692 15.1309 55.7269C15.1309 52.6846 17.5963 50.2218 20.6417 50.2218C23.6872 50.2218 26.1526 52.6846 26.1526 55.7269C26.1526 58.7692 23.6872 61.232 20.6417 61.232ZM20.6417 52.1534C18.6598 52.1534 17.0645 53.747 17.0645 55.7269C17.0645 57.7068 18.6598 59.3004 20.6417 59.3004C22.6237 59.3004 24.219 57.7068 24.219 55.7269C24.219 53.747 22.6237 52.1534 20.6417 52.1534Z" fill="#ED3024"/>
<path d="M351.778 209C348.733 209 346.268 206.537 346.268 203.495C346.268 200.453 348.733 197.99 351.778 197.99C354.824 197.99 357.289 200.453 357.289 203.495C357.289 206.537 354.824 209 351.778 209ZM351.778 199.921C349.796 199.921 348.201 201.515 348.201 203.495C348.201 205.475 349.796 207.068 351.778 207.068C353.76 207.068 355.356 205.475 355.356 203.495C355.356 201.515 353.76 199.921 351.778 199.921Z" fill="#ED3024"/>
<path d="M260.413 11.0102C257.368 11.0102 254.902 8.54737 254.902 5.50508C254.902 2.4628 257.368 0 260.413 0C263.459 0 265.924 2.4628 265.924 5.50508C265.924 8.54737 263.459 11.0102 260.413 11.0102ZM260.413 1.93161C258.431 1.93161 256.836 3.52518 256.836 5.50508C256.836 7.48498 258.431 9.07856 260.413 9.07856C262.395 9.07856 263.99 7.48498 263.99 5.50508C263.99 3.52518 262.395 1.93161 260.413 1.93161Z" fill="#ED3024"/>
<path d="M121.675 41.6262C116.406 41.6262 112.104 37.3283 112.104 32.0647C112.104 26.8011 116.406 22.5032 121.675 22.5032C126.944 22.5032 131.247 26.8011 131.247 32.0647C131.247 37.3283 126.944 41.6262 121.675 41.6262ZM121.675 24.4348C117.469 24.4348 114.037 27.8635 114.037 32.0647C114.037 36.2659 117.469 39.6945 121.675 39.6945C125.881 39.6945 129.313 36.2659 129.313 32.0647C129.313 27.8635 125.881 24.4348 121.675 24.4348Z" fill="#ED3024"/>
<path d="M37.0773 152.983C34.0318 152.983 31.5664 150.521 31.5664 147.478C31.5664 144.436 34.0318 141.973 37.0773 141.973C40.1228 141.973 42.5882 144.436 42.5882 147.478C42.5882 150.521 40.1228 152.983 37.0773 152.983ZM37.0773 143.905C35.0953 143.905 33.5001 145.498 33.5001 147.478C33.5001 149.458 35.0953 151.052 37.0773 151.052C39.0593 151.052 40.6545 149.458 40.6545 147.478C40.6545 145.498 39.0593 143.905 37.0773 143.905Z" fill="#ED3024"/>
<path d="M189.884 188.139L194.815 183.213C195.202 182.827 195.202 182.247 194.815 181.861C194.428 181.475 193.848 181.475 193.461 181.861L188.53 186.786L183.6 181.861C183.213 181.475 182.633 181.475 182.246 181.861C181.859 182.247 181.859 182.827 182.246 183.213L187.177 188.139L182.246 193.064C181.859 193.451 181.859 194.03 182.246 194.416C182.439 194.61 182.681 194.706 182.923 194.706C183.165 194.706 183.406 194.61 183.6 194.416L188.53 189.491L193.461 194.416C193.655 194.61 193.896 194.706 194.138 194.706C194.38 194.706 194.621 194.61 194.815 194.416C195.202 194.03 195.202 193.451 194.815 193.064L189.884 188.139Z" fill="#ED3024"/>
<path d="M349.893 128.259L352.31 125.844C352.697 125.458 352.697 124.878 352.31 124.492C351.924 124.106 351.343 124.106 350.957 124.492L348.54 126.907L346.171 124.492C345.784 124.106 345.204 124.106 344.817 124.492C344.431 124.878 344.431 125.458 344.817 125.844L347.186 128.259L344.817 130.625C344.431 131.011 344.431 131.591 344.817 131.977C345.011 132.17 345.252 132.267 345.494 132.267C345.736 132.267 345.978 132.17 346.171 131.977L348.54 129.611L350.957 131.977C351.15 132.17 351.392 132.267 351.634 132.267C351.875 132.267 352.117 132.17 352.31 131.977C352.697 131.591 352.697 131.011 352.31 130.625L349.893 128.259Z" fill="#ED3024"/>
<path d="M194.718 41.8193L197.135 39.4048C197.522 39.0185 197.522 38.439 197.135 38.0527C196.749 37.6664 196.169 37.6664 195.782 38.0527L193.365 40.4672L190.996 38.0527C190.609 37.6664 190.029 37.6664 189.643 38.0527C189.256 38.439 189.256 39.0185 189.643 39.4048L192.011 41.8193L189.643 44.1855C189.256 44.5719 189.256 45.1513 189.643 45.5377C189.836 45.7308 190.078 45.8274 190.319 45.8274C190.561 45.8274 190.803 45.7308 190.996 45.5377L193.365 43.1714L195.782 45.5377C195.975 45.7308 196.217 45.8274 196.459 45.8274C196.7 45.8274 196.942 45.7308 197.135 45.5377C197.522 45.1513 197.522 44.5719 197.135 44.1855L194.718 41.8193Z" fill="#ED3024"/>
<path d="M350.328 24.29C348.732 24.29 347.476 22.9861 347.476 21.4409C347.476 19.8956 348.781 18.5917 350.328 18.5917C351.923 18.5917 353.18 19.8956 353.18 21.4409C353.18 22.9861 351.923 24.29 350.328 24.29ZM350.328 19.5575C349.264 19.5575 348.442 20.4268 348.442 21.4409C348.442 22.5032 349.313 23.3242 350.328 23.3242C351.391 23.3242 352.213 22.455 352.213 21.4409C352.213 20.3785 351.391 19.5575 350.328 19.5575Z" fill="#D78787"/>
<path d="M370.148 112.178C368.553 112.178 367.296 110.874 367.296 109.329C367.296 107.735 368.601 106.48 370.148 106.48C371.743 106.48 373 107.784 373 109.329C373 110.874 371.743 112.178 370.148 112.178ZM370.148 107.446C369.085 107.446 368.263 108.315 368.263 109.329C368.263 110.391 369.133 111.212 370.148 111.212C371.212 111.212 372.033 110.343 372.033 109.329C372.033 108.267 371.212 107.446 370.148 107.446Z" fill="#D78787"/>
<path d="M213.523 176.404C212.218 176.404 211.154 175.342 211.154 174.038C211.154 172.734 212.218 171.672 213.523 171.672C214.828 171.672 215.892 172.734 215.892 174.038C215.892 175.342 214.828 176.404 213.523 176.404ZM213.523 172.637C212.75 172.637 212.121 173.265 212.121 174.038C212.121 174.811 212.75 175.438 213.523 175.438C214.296 175.438 214.925 174.811 214.925 174.038C214.925 173.265 214.296 172.637 213.523 172.637Z" fill="#D78787"/>
<path d="M98.4713 16.0806C97.166 16.0806 96.1025 15.0183 96.1025 13.7144C96.1025 12.4106 97.166 11.3482 98.4713 11.3482C99.7765 11.3482 100.84 12.4106 100.84 13.7144C100.84 15.0183 99.7765 16.0806 98.4713 16.0806ZM98.4713 12.314C97.6978 12.314 97.0694 12.9418 97.0694 13.7144C97.0694 14.4871 97.6978 15.1148 98.4713 15.1148C99.2447 15.1148 99.8732 14.4871 99.8732 13.7144C99.8732 12.9418 99.2447 12.314 98.4713 12.314Z" fill="#D78787"/>
<path d="M39.9781 182.682C38.6729 182.682 37.6094 181.619 37.6094 180.316C37.6094 179.012 38.6729 177.949 39.9781 177.949C41.2833 177.949 42.3468 179.012 42.3468 180.316C42.3468 181.619 41.2833 182.682 39.9781 182.682ZM39.9781 178.915C39.2046 178.915 38.5762 179.543 38.5762 180.316C38.5762 181.088 39.2046 181.716 39.9781 181.716C40.7515 181.716 41.38 181.088 41.38 180.316C41.38 179.543 40.7515 178.915 39.9781 178.915Z" fill="#D78787"/>
<path d="M160.444 10.1892L159.767 9.51318L158.027 11.2033L156.335 9.51318L155.658 10.1892L157.35 11.8794L155.658 13.6179L156.335 14.2939L158.027 12.5555L159.767 14.2939L160.444 13.6179L158.752 11.8794L160.444 10.1892Z" fill="#D78787"/>
<path d="M369.761 179.205L369.085 178.529L367.344 180.219L365.652 178.529L364.976 179.205L366.668 180.895L364.976 182.634L365.652 183.31L367.344 181.571L369.085 183.31L369.761 182.634L368.069 180.895L369.761 179.205Z" fill="#D78787"/>
<path d="M280.585 18.6866L276.483 22.7841L277.167 23.4671L281.269 19.3696L280.585 18.6866Z" fill="#D78787"/>
<path d="M277.167 18.6866L276.483 19.3696L280.585 23.4671L281.269 22.7842L277.167 18.6866Z" fill="#D78787"/>
<path d="M4.78577 131.398L4.10899 130.722L2.36871 132.412L0.676776 130.722L0 131.398L1.69194 133.088L0 134.826L0.676776 135.502L2.36871 133.764L4.10899 135.502L4.78577 134.826L3.09383 133.088L4.78577 131.398Z" fill="#D78787"/>
<path d="M42.4918 62.8256L41.815 62.1495L40.0748 63.8397L38.3828 62.1495L37.7061 62.8256L39.398 64.5157L37.7061 66.2542L38.3828 66.9302L40.0748 65.1918L41.815 66.9302L42.4918 66.2542L40.7999 64.5157L42.4918 62.8256Z" fill="#D78787"/>
<path d="M240 106.5C240 132.655 218.655 154 192.5 154C166.345 154 145 132.655 145 106.5C145 80.3449 166.345 59 192.5 59C218.655 59 240 80.3449 240 106.5Z" fill="#AF0028"/>
<path d="M234.89 106.5C234.89 129.949 215.95 148.889 192.501 148.889C169.051 148.889 150.111 129.949 150.111 106.5C150.111 83.0506 169.051 64.1108 192.501 64.1108C215.95 64.1108 234.89 83.0506 234.89 106.5Z" fill="#FF1E32"/>
<path d="M206.93 129.348C206.93 128.747 206.93 128.446 206.93 127.845C206.93 119.728 200.316 113.415 192.5 113.415C184.383 113.415 178.069 120.028 178.069 127.845C178.069 128.446 178.069 128.747 178.069 129.348H206.93Z" fill="#AF0028"/>
<path d="M209.635 100.187L200.917 104.696L210.838 104.997" stroke="#AF0028" stroke-width="4" stroke-miterlimit="10" stroke-linecap="round" stroke-linejoin="round"/>
<path d="M175.365 100.187L184.083 104.696L174.162 104.997" stroke="#AF0028" stroke-width="4" stroke-miterlimit="10" stroke-linecap="round" stroke-linejoin="round"/>
</g>
<defs>
<clipPath id="clip0_106_1640">
<rect width="373" height="209" fill="white"/>
</clipPath>
</defs>
</svg>
