<svg width="20" height="36" viewBox="0 0 20 36" fill="none" xmlns="http://www.w3.org/2000/svg">
<path d="M18.9705 31.4843C18.9705 31.4843 19.4206 19.9443 18.9705 18.3136C18.5846 16.8711 15.3692 12.9199 15.3692 12.9199L6.6875 20.1324C6.6875 20.1324 8.874 26.0906 9.32416 27.0314C9.77432 27.9721 11.1248 29.4146 11.1248 29.4146V31.4843H18.9705Z" fill="#FFBE69"/>
<path d="M12.1546 25.5888L8.36035 24.5226C8.81051 25.6516 9.19636 26.7178 9.38929 27.0314C9.83945 27.9721 11.1899 29.4146 11.1899 29.4146V31.4843H14.5983V29.3519L12.1546 25.5888Z" fill="#F29040"/>
<path d="M13.6978 1.7561H0.450195V26.216H13.6978V1.7561Z" fill="#3A7C00"/>
<path d="M13.2476 1.7561H0V26.216H13.2476V1.7561Z" fill="#56B512"/>
<path d="M10.3537 13.9861C10.3537 15.993 8.68162 17.561 6.68806 17.561C4.69449 17.561 3.02246 15.9303 3.02246 13.9861C3.02246 11.9791 4.69449 10.4112 6.68806 10.4112C8.68162 10.4112 10.3537 11.9791 10.3537 13.9861Z" fill="#4A9B05"/>
<path d="M6.62389 8.46691C7.61835 8.46691 8.42453 7.68068 8.42453 6.71081C8.42453 5.74094 7.61835 4.95471 6.62389 4.95471C5.62942 4.95471 4.82324 5.74094 4.82324 6.71081C4.82324 7.68068 5.62942 8.46691 6.62389 8.46691Z" fill="#80D52F"/>
<path d="M6.62389 22.9547C7.61835 22.9547 8.42453 22.1685 8.42453 21.1986C8.42453 20.2287 7.61835 19.4425 6.62389 19.4425C5.62942 19.4425 4.82324 20.2287 4.82324 21.1986C4.82324 22.1685 5.62942 22.9547 6.62389 22.9547Z" fill="#80D52F"/>
<path d="M0 1.7561V26.216H13.2476V1.7561H0ZM12.5402 25.4634H0.707396V2.446H12.5402V25.4634Z" fill="#4A9B05"/>
<path d="M3.34405 1.88154C3.34405 1.81883 3.34405 1.75611 3.34405 1.69339H0V5.2683C1.86495 5.20558 3.34405 3.76308 3.34405 1.88154Z" fill="#4A9B05"/>
<path d="M13.2474 5.2683V1.7561H9.90332C9.90332 1.81882 9.90332 1.88154 9.90332 1.94426C9.90332 3.76307 11.4467 5.20558 13.2474 5.2683Z" fill="#4A9B05"/>
<path d="M3.34405 26.0279C3.34405 24.2091 1.86495 22.7038 0 22.6411V26.216H3.34405C3.34405 26.1533 3.34405 26.0906 3.34405 26.0279Z" fill="#4A9B05"/>
<path d="M9.90332 26.0279C9.90332 26.0906 9.90332 26.1533 9.90332 26.216H13.2474V22.6411C11.4467 22.7038 9.90332 24.1463 9.90332 26.0279Z" fill="#4A9B05"/>
<path d="M7.71649 13.2962C7.52356 13.2962 7.39494 13.3589 7.33063 13.4216C7.20202 13.547 7.13771 13.6725 7.00909 13.9234C6.88047 14.3624 6.68755 14.7387 6.43031 14.9268C6.23739 15.1777 5.91584 15.2404 5.52999 15.2404C5.20845 15.2404 4.8869 15.115 4.69398 14.9268C4.50105 14.676 4.30813 14.4251 4.30813 14.0488H3.66504V13.547H4.37243C4.43674 13.1707 4.56536 12.9199 4.8226 12.669C5.07983 12.4808 5.40137 12.3554 5.78723 12.3554V13.2335C5.52999 13.2335 5.40137 13.2962 5.27276 13.3589C5.14414 13.4843 5.07983 13.6098 5.07983 13.7979C5.07983 13.9861 5.14414 14.1115 5.20845 14.2369C5.27276 14.3624 5.40137 14.4251 5.5943 14.4251C5.72292 14.4251 5.85153 14.3624 5.98015 14.2997C6.04446 14.2369 6.17308 14.0488 6.30169 13.7979C6.43031 13.3589 6.62324 12.9826 6.88047 12.7944C7.0734 12.5436 7.39494 12.4808 7.78079 12.4808C8.16665 12.4808 8.42388 12.6063 8.61681 12.7944C8.80973 12.9826 8.93835 13.2962 9.00266 13.6725H9.64575V14.1742H9.00266C8.93835 14.5505 8.80973 14.8641 8.61681 15.115C8.35957 15.3659 8.03803 15.4913 7.58787 15.4913V14.6132C7.8451 14.6132 8.03803 14.5505 8.16665 14.4251C8.29526 14.2997 8.35957 14.1115 8.35957 13.9234C8.35957 13.7352 8.29526 13.547 8.23096 13.4843C8.03803 13.3589 7.90941 13.2962 7.71649 13.2962Z" fill="#80D52F"/>
<path d="M15.4986 0H2.25098V24.4599H15.4986V0Z" fill="#398E01"/>
<path d="M15.0484 0H1.80078V24.4599H15.0484V0Z" fill="#63C21F"/>
<path d="M12.09 12.23C12.09 14.2369 10.418 15.8049 8.42438 15.8049C6.36651 15.8049 4.75879 14.1742 4.75879 12.23C4.75879 10.223 6.43081 8.65506 8.42438 8.65506C10.418 8.65506 12.09 10.223 12.09 12.23Z" fill="#57A812"/>
<path d="M10.1609 4.95471C10.1609 5.89547 9.38915 6.7108 8.36021 6.7108C7.39558 6.7108 6.55957 5.95819 6.55957 4.95471C6.55957 4.01394 7.33127 3.19861 8.36021 3.19861C9.38915 3.26133 10.1609 4.01394 10.1609 4.95471Z" fill="#8DE23C"/>
<path d="M10.1609 19.5052C10.1609 20.446 9.38915 21.2613 8.36021 21.2613C7.39558 21.2613 6.55957 20.5087 6.55957 19.5052C6.55957 18.5017 7.33127 17.7491 8.36021 17.7491C9.38915 17.7491 10.1609 18.5644 10.1609 19.5052Z" fill="#8DE23C"/>
<path d="M1.80078 0V24.4599H15.0484V0H1.80078ZM14.341 23.77H2.50818V0.689895H14.341V23.77Z" fill="#57A812"/>
<path d="M5.14483 0.188153C5.14483 0.125436 5.14483 0.0627178 5.14483 0H1.80078V3.57491C3.60142 3.51219 5.14483 2.00697 5.14483 0.188153Z" fill="#57A812"/>
<path d="M15.0482 3.57491V0H11.7041C11.7041 0.0627178 11.7041 0.125436 11.7041 0.188153C11.7041 2.00697 13.1832 3.51219 15.0482 3.57491Z" fill="#57A812"/>
<path d="M5.14483 24.2718C5.14483 22.453 3.66573 20.9477 1.80078 20.885V24.4599H5.14483C5.08052 24.3972 5.14483 24.3345 5.14483 24.2718Z" fill="#57A812"/>
<path d="M11.7041 24.2718C11.7041 24.3345 11.7041 24.3972 11.7041 24.4599H15.0482V20.885C13.1832 20.9477 11.7041 22.453 11.7041 24.2718Z" fill="#57A812"/>
<path d="M16.27 22.0139C16.27 22.0139 10.1607 16.6829 9.32471 16.4321C8.4887 16.1185 7.52407 16.7456 7.84561 17.8746C8.16715 19.0662 10.4823 20.3833 11.1254 21.5749C11.7684 22.7666 11.1254 27.9094 14.4694 29.3519L15.8199 29.2265L16.27 22.0139Z" fill="#FFBE69"/>
<path d="M19.6783 30.4808H10.3535V34.0557H19.6783V30.4808Z" fill="#EFDFEB"/>
<path d="M19.9999 32.3624H9.96777V35.9373H19.9999V32.3624Z" fill="#282E47"/>
<path d="M13.1192 34.1812C13.1192 34.4948 12.8619 34.8084 12.4761 34.8084C12.1546 34.8084 11.833 34.5575 11.833 34.1812C11.833 33.8676 12.0902 33.554 12.4761 33.554C12.8619 33.554 13.1192 33.8049 13.1192 34.1812Z" fill="#EFDFEB"/>
</svg>
