<svg width="36" height="36" viewBox="0 0 36 36" fill="none" xmlns="http://www.w3.org/2000/svg">
<g clip-path="url(#clip0)">
<path d="M34.0131 36.0001C35.1103 36.0001 36 35.1105 36 34.0132V1.98689C36 0.889453 35.1103 0 34.0131 0H1.98689C0.889313 0 0 0.889453 0 1.98689V34.0132C0 35.1105 0.889313 36.0001 1.98689 36.0001H34.0131Z" fill="#395185"/>
<path d="M24.8387 36.0004V22.0592H29.5183L30.2188 16.6262H24.8387V13.1572C24.8387 11.5842 25.2756 10.5122 27.5314 10.5122L30.4084 10.511V5.65167C29.9106 5.58544 28.2028 5.4375 26.2161 5.4375C22.0679 5.4375 19.2282 7.96945 19.2282 12.6194V16.6262H14.5366V22.0592H19.2282V36.0004H24.8387Z" fill="white"/>
</g>
<defs>
<clipPath id="clip0">
<rect width="36" height="36" fill="white"/>
</clipPath>
</defs>
</svg>
