<svg width="61" height="38" viewBox="0 0 61 38" fill="none" xmlns="http://www.w3.org/2000/svg">
<path d="M31.1729 25.3333H3.58829C3.02763 25.3333 2.5791 24.881 2.5791 24.3155C2.5791 16.0595 9.19491 9.3869 17.3806 9.3869C25.5662 9.3869 32.182 16.0595 32.182 24.3155C32.182 24.881 31.7335 25.3333 31.1729 25.3333ZM4.59748 23.2976H30.0515C29.603 16.625 23.9964 11.4226 17.2684 11.4226C10.5405 11.4226 5.15815 16.7381 4.59748 23.2976Z" fill="url(#paint0_linear_106_1776)"/>
<path d="M23.0993 37.8869H11.6618C6.61587 37.8869 2.5791 33.8155 2.5791 28.7262C2.5791 28.1607 3.02763 27.7083 3.58829 27.7083H18.5019C19.0626 27.7083 19.5111 28.1607 19.5111 28.7262C19.5111 29.2917 19.0626 29.7441 18.5019 29.7441H4.70962C5.15815 33.25 8.18572 35.9643 11.774 35.9643H23.0993C26.6876 35.9643 29.603 33.25 30.1637 29.7441H27.6968C27.1361 29.7441 26.6876 29.2917 26.6876 28.7262C26.6876 28.1607 27.1361 27.7083 27.6968 27.7083H31.1729C31.7335 27.7083 32.182 28.1607 32.182 28.7262C32.182 33.8155 28.0331 37.8869 23.0993 37.8869Z" fill="url(#paint1_linear_106_1776)"/>
<path d="M17.3805 29.7441C16.8199 29.7441 16.3713 29.2917 16.3713 28.7262C16.3713 28.1607 16.8199 27.7083 17.3805 27.7083C17.9412 27.7083 18.3897 28.1607 18.3897 28.7262C18.3897 29.2917 17.9412 29.7441 17.3805 29.7441Z" fill="url(#paint2_linear_106_1776)"/>
<path d="M31.6213 29.744H3.13971C1.45772 29.744 0 28.2738 0 26.5774C0 24.7678 1.45772 23.4107 3.13971 23.4107H31.5092C33.3033 23.4107 34.6489 24.8809 34.6489 26.5774C34.761 28.2738 33.3033 29.744 31.6213 29.744ZM3.13971 25.3333C2.46691 25.3333 1.90625 25.8988 1.90625 26.5774C1.90625 27.2559 2.46691 27.8214 3.13971 27.8214H31.5092C32.182 27.8214 32.7426 27.2559 32.7426 26.5774C32.7426 25.8988 32.182 25.3333 31.5092 25.3333H3.13971Z" fill="url(#paint3_linear_106_1776)"/>
<path d="M17.3805 18.4345C16.8199 18.4345 16.3713 17.9822 16.3713 17.4167V15.7202C16.3713 15.1548 16.8199 14.7024 17.3805 14.7024C17.9412 14.7024 18.3897 15.1548 18.3897 15.7202V17.4167C18.3897 17.9822 17.9412 18.4345 17.3805 18.4345Z" fill="url(#paint4_linear_106_1776)"/>
<path d="M11.101 20.1309C10.5403 20.1309 10.0918 19.6786 10.0918 19.1131V17.4167C10.0918 16.8512 10.5403 16.3988 11.101 16.3988C11.6616 16.3988 12.1102 16.8512 12.1102 17.4167V19.1131C12.1102 19.6786 11.6616 20.1309 11.101 20.1309Z" fill="url(#paint5_linear_106_1776)"/>
<path d="M7.17643 22.7321C6.61577 22.7321 6.16724 22.2798 6.16724 21.7143V20.0179C6.16724 19.4524 6.61577 19 7.17643 19C7.73709 19 8.18562 19.4524 8.18562 20.0179V21.7143C8.07349 22.2798 7.62496 22.7321 7.17643 22.7321Z" fill="url(#paint6_linear_106_1776)"/>
<path d="M14.465 22.7321C13.9043 22.7321 13.4558 22.2798 13.4558 21.7143V20.0179C13.4558 19.4524 13.9043 19 14.465 19C15.0257 19 15.4742 19.4524 15.4742 20.0179V21.7143C15.4742 22.2798 15.0257 22.7321 14.465 22.7321Z" fill="url(#paint7_linear_106_1776)"/>
<path d="M23.6598 20.1309C23.0992 20.1309 22.6506 19.6786 22.6506 19.1131V17.4167C22.6506 16.8512 23.0992 16.3988 23.6598 16.3988C24.2205 16.3988 24.669 16.8512 24.669 17.4167V19.1131C24.669 19.6786 24.2205 20.1309 23.6598 20.1309Z" fill="url(#paint8_linear_106_1776)"/>
<path d="M27.5846 22.7321C27.024 22.7321 26.5754 22.2798 26.5754 21.7143V20.0179C26.5754 19.4524 27.024 19 27.5846 19C28.1453 19 28.5938 19.4524 28.5938 20.0179V21.7143C28.5938 22.2798 28.1453 22.7321 27.5846 22.7321Z" fill="url(#paint9_linear_106_1776)"/>
<path d="M20.2961 22.7321C19.7354 22.7321 19.2869 22.2798 19.2869 21.7143V20.0179C19.2869 19.4524 19.7354 19 20.2961 19C20.8567 19 21.3052 19.4524 21.3052 20.0179V21.7143C21.1931 22.2798 20.8567 22.7321 20.2961 22.7321Z" fill="url(#paint10_linear_106_1776)"/>
<path d="M59.9908 38H1.00919C0.448529 38 0 37.5476 0 36.9822C0 36.4167 0.448529 35.9643 1.00919 35.9643H59.9908C60.5515 35.9643 61 36.4167 61 36.9822C61 37.5476 60.5515 38 59.9908 38Z" fill="url(#paint11_linear_106_1776)"/>
<path d="M17.9412 33.8155H4.82169C4.26103 33.8155 3.8125 33.3631 3.8125 32.7976C3.8125 32.2321 4.26103 31.7798 4.82169 31.7798H17.9412C18.5018 31.7798 18.9504 32.2321 18.9504 32.7976C18.9504 33.3631 18.5018 33.8155 17.9412 33.8155Z" fill="url(#paint12_linear_106_1776)"/>
<path d="M52.2536 37.8869H43.3952C41.6011 37.8869 40.0312 36.5298 39.6948 34.7202L35.8823 1.13095C35.8823 0.904762 35.8823 0.565476 36.1066 0.339286C36.3309 0.113095 36.5551 0 36.8915 0H58.9816C59.318 0 59.5422 0.113095 59.7665 0.339286C59.9908 0.565476 59.9908 0.791667 59.9908 1.13095L56.0661 34.8333C55.6176 36.6429 54.1599 37.8869 52.2536 37.8869ZM37.9007 2.03571L41.7132 34.6071C41.8253 35.3988 42.6103 35.9643 43.3952 35.9643H52.2536C53.1507 35.9643 53.8235 35.3988 53.9356 34.494L57.7481 2.03571H37.9007Z" fill="url(#paint13_linear_106_1776)"/>
<path d="M44.2923 18.6607C42.9468 18.6607 41.8254 17.5298 41.8254 16.1726C41.8254 14.8155 42.9468 13.6845 44.2923 13.6845C45.6379 13.6845 46.7593 14.8155 46.7593 16.1726C46.8714 17.5298 45.7501 18.6607 44.2923 18.6607ZM44.2923 15.6072C43.956 15.6072 43.7317 15.8333 43.7317 16.1726C43.7317 16.5119 43.956 16.7381 44.2923 16.7381C44.6287 16.7381 44.853 16.5119 44.853 16.1726C44.853 15.8333 44.6287 15.6072 44.2923 15.6072Z" fill="url(#paint14_linear_106_1776)"/>
<path d="M51.1322 25.3333C49.5624 25.3333 48.2168 23.9762 48.2168 22.3929C48.2168 20.8095 49.5624 19.4524 51.1322 19.4524C52.7021 19.4524 54.0477 20.8095 54.0477 22.3929C54.0477 24.0893 52.8142 25.3333 51.1322 25.3333ZM51.1322 21.375C50.5716 21.375 50.123 21.8274 50.123 22.3929C50.123 22.9583 50.5716 23.4107 51.1322 23.4107C51.6929 23.4107 52.1414 22.9583 52.1414 22.3929C52.1414 21.8274 51.6929 21.375 51.1322 21.375Z" fill="url(#paint15_linear_106_1776)"/>
<path d="M45.8622 32.3452C44.2924 32.3452 42.9468 30.9881 42.9468 29.4048C42.9468 27.8214 44.2924 26.4643 45.8622 26.4643C47.4321 26.4643 48.7777 27.8214 48.7777 29.4048C48.7777 30.9881 47.4321 32.3452 45.8622 32.3452ZM45.8622 28.3869C45.3016 28.3869 44.853 28.8393 44.853 29.4048C44.853 29.9702 45.3016 30.4226 45.8622 30.4226C46.4229 30.4226 46.8714 29.9702 46.8714 29.4048C46.7593 28.8393 46.3108 28.3869 45.8622 28.3869Z" fill="url(#paint16_linear_106_1776)"/>
<path d="M53.8235 9.61311C51.5809 9.61311 49.2261 9.04763 46.5349 8.48216C42.1617 7.5774 38.125 9.04763 38.0128 9.16073C37.4522 9.38692 36.8915 9.04763 36.7794 8.59525C36.5551 8.02978 36.8915 7.4643 37.3401 7.3512C37.5643 7.23811 42.0496 5.54168 46.9834 6.67263C51.5809 7.5774 54.7206 8.25597 57.7481 6.78573C58.1967 6.55954 58.8695 6.78573 59.0937 7.23811C59.318 7.69049 59.0937 8.36906 58.6452 8.59525C56.9632 9.38692 55.5055 9.61311 53.8235 9.61311Z" fill="url(#paint17_linear_106_1776)"/>
<defs>
<linearGradient id="paint0_linear_106_1776" x1="17.3806" y1="9.3869" x2="17.3806" y2="25.3333" gradientUnits="userSpaceOnUse">
<stop stop-color="#D9F4D2"/>
<stop offset="1" stop-color="#58C6FA"/>
</linearGradient>
<linearGradient id="paint1_linear_106_1776" x1="17.3806" y1="27.7083" x2="17.3806" y2="37.8869" gradientUnits="userSpaceOnUse">
<stop stop-color="#D9F4D2"/>
<stop offset="1" stop-color="#58C6FA"/>
</linearGradient>
<linearGradient id="paint2_linear_106_1776" x1="17.3805" y1="27.7083" x2="17.3805" y2="29.7441" gradientUnits="userSpaceOnUse">
<stop stop-color="#D9F4D2"/>
<stop offset="1" stop-color="#58C6FA"/>
</linearGradient>
<linearGradient id="paint3_linear_106_1776" x1="17.3275" y1="23.4107" x2="17.3275" y2="29.744" gradientUnits="userSpaceOnUse">
<stop stop-color="#D9F4D2"/>
<stop offset="1" stop-color="#58C6FA"/>
</linearGradient>
<linearGradient id="paint4_linear_106_1776" x1="17.3805" y1="14.7024" x2="17.3805" y2="18.4345" gradientUnits="userSpaceOnUse">
<stop stop-color="#D9F4D2"/>
<stop offset="1" stop-color="#58C6FA"/>
</linearGradient>
<linearGradient id="paint5_linear_106_1776" x1="11.101" y1="16.3988" x2="11.101" y2="20.1309" gradientUnits="userSpaceOnUse">
<stop stop-color="#D9F4D2"/>
<stop offset="1" stop-color="#58C6FA"/>
</linearGradient>
<linearGradient id="paint6_linear_106_1776" x1="7.17643" y1="19" x2="7.17643" y2="22.7321" gradientUnits="userSpaceOnUse">
<stop stop-color="#D9F4D2"/>
<stop offset="1" stop-color="#58C6FA"/>
</linearGradient>
<linearGradient id="paint7_linear_106_1776" x1="14.465" y1="19" x2="14.465" y2="22.7321" gradientUnits="userSpaceOnUse">
<stop stop-color="#D9F4D2"/>
<stop offset="1" stop-color="#58C6FA"/>
</linearGradient>
<linearGradient id="paint8_linear_106_1776" x1="23.6598" y1="16.3988" x2="23.6598" y2="20.1309" gradientUnits="userSpaceOnUse">
<stop stop-color="#D9F4D2"/>
<stop offset="1" stop-color="#58C6FA"/>
</linearGradient>
<linearGradient id="paint9_linear_106_1776" x1="27.5846" y1="19" x2="27.5846" y2="22.7321" gradientUnits="userSpaceOnUse">
<stop stop-color="#D9F4D2"/>
<stop offset="1" stop-color="#58C6FA"/>
</linearGradient>
<linearGradient id="paint10_linear_106_1776" x1="20.2961" y1="19" x2="20.2961" y2="22.7321" gradientUnits="userSpaceOnUse">
<stop stop-color="#D9F4D2"/>
<stop offset="1" stop-color="#58C6FA"/>
</linearGradient>
<linearGradient id="paint11_linear_106_1776" x1="30.5" y1="35.9643" x2="30.5" y2="38" gradientUnits="userSpaceOnUse">
<stop stop-color="#D9F4D2"/>
<stop offset="1" stop-color="#58C6FA"/>
</linearGradient>
<linearGradient id="paint12_linear_106_1776" x1="11.3814" y1="31.7798" x2="11.3814" y2="33.8155" gradientUnits="userSpaceOnUse">
<stop stop-color="#D9F4D2"/>
<stop offset="1" stop-color="#58C6FA"/>
</linearGradient>
<linearGradient id="paint13_linear_106_1776" x1="47.9366" y1="0" x2="47.9366" y2="37.8869" gradientUnits="userSpaceOnUse">
<stop stop-color="#D9F4D2"/>
<stop offset="1" stop-color="#58C6FA"/>
</linearGradient>
<linearGradient id="paint14_linear_106_1776" x1="44.2962" y1="13.6845" x2="44.2962" y2="18.6607" gradientUnits="userSpaceOnUse">
<stop stop-color="#D9F4D2"/>
<stop offset="1" stop-color="#58C6FA"/>
</linearGradient>
<linearGradient id="paint15_linear_106_1776" x1="51.1322" y1="19.4524" x2="51.1322" y2="25.3333" gradientUnits="userSpaceOnUse">
<stop stop-color="#D9F4D2"/>
<stop offset="1" stop-color="#58C6FA"/>
</linearGradient>
<linearGradient id="paint16_linear_106_1776" x1="45.8622" y1="26.4643" x2="45.8622" y2="32.3452" gradientUnits="userSpaceOnUse">
<stop stop-color="#D9F4D2"/>
<stop offset="1" stop-color="#58C6FA"/>
</linearGradient>
<linearGradient id="paint17_linear_106_1776" x1="47.9449" y1="6.28561" x2="47.9449" y2="9.61311" gradientUnits="userSpaceOnUse">
<stop stop-color="#D9F4D2"/>
<stop offset="1" stop-color="#58C6FA"/>
</linearGradient>
</defs>
</svg>
