<svg width="36" height="36" viewBox="0 0 36 36" fill="none" xmlns="http://www.w3.org/2000/svg">
<g clip-path="url(#clip0)">
<path d="M30.6737 30.6737H25.3396V22.3202C25.3396 20.3282 25.3041 17.7639 22.5654 17.7639C19.7872 17.7639 19.3621 19.9343 19.3621 22.1752V30.6731H14.0282V13.495H19.1488V15.8426H19.2205C19.7329 14.9663 20.4735 14.2455 21.3632 13.7568C22.2529 13.2682 23.2585 13.03 24.2729 13.0676C29.6792 13.0676 30.6759 16.6237 30.6759 21.25L30.6737 30.6737ZM8.00944 11.1469C6.29986 11.1472 4.91372 9.76151 4.91344 8.05193C4.91316 6.34235 6.29873 4.95621 8.00831 4.95593C9.71789 4.95551 11.104 6.34123 11.1043 8.0508C11.1045 8.87178 10.7785 9.65919 10.1981 10.2398C9.61769 10.8205 8.83041 11.1468 8.00944 11.1469ZM10.6765 30.6739H5.33686V13.495H10.6764V30.6737L10.6765 30.6739ZM33.3329 0.00213183H2.65655C1.2067 -0.0141807 0.0177188 1.14724 0 2.59708V33.4014C0.0171563 34.852 1.206 36.0145 2.65641 35.9993H33.3329C34.7864 36.0173 35.9799 34.8548 36 33.4014V2.59469C35.9793 1.14204 34.7857 -0.0192432 33.3329 -0.000258796" fill="#0A66C2"/>
</g>
<defs>
<clipPath id="clip0">
<rect width="36" height="36" fill="white"/>
</clipPath>
</defs>
</svg>
