<svg width="228" height="76" viewBox="0 0 228 76" fill="none" xmlns="http://www.w3.org/2000/svg">
<path d="M74.7676 37.0551C75.0141 37.6714 75.1784 38.4108 75.2195 39.2324H66.0584C66.1816 37.6714 66.6746 36.48 67.5373 35.6173C68.4 34.7546 69.427 34.3027 70.6184 34.3027C71.1935 34.3027 71.7686 34.3849 72.3027 34.5903C72.8368 34.7957 73.3297 35.0832 73.7816 35.4941C74.1924 35.9049 74.5211 36.4389 74.7676 37.0551ZM169.049 42.9708C167.323 43.2995 166.173 43.7514 165.516 44.2443C164.858 44.7784 164.571 45.5178 164.571 46.4627C164.571 48.147 165.516 48.9687 167.446 48.9687C168.227 48.9687 168.925 48.8454 169.583 48.5989C170.24 48.3524 170.815 47.9827 171.267 47.5308C171.719 47.0789 172.13 46.5859 172.417 45.9697C172.705 45.3946 172.869 44.7373 172.869 44.08L172.91 41.6151C172.623 41.9027 172.171 42.1492 171.596 42.3546C170.979 42.56 170.117 42.7654 169.049 42.9708ZM209.801 33.8919C210.089 35.0422 209.883 36.0692 209.144 36.973C208.528 37.7124 207.747 38.0411 206.966 38.0411C205.159 38.0411 203.885 36.8908 203.639 35.2476C203.392 33.6865 204.296 32.1665 205.693 31.6735C207.459 31.0573 209.349 32.0843 209.801 33.8919ZM208.733 36.8908C208.692 36.6854 208.61 36.5211 208.569 36.3568C208.486 36.1103 208.445 35.8638 208.363 35.6173C208.281 35.2887 208.076 35.0422 207.747 34.9189L207.706 34.8778C207.788 34.8368 207.829 34.8368 207.911 34.7957C208.199 34.6724 208.445 34.467 208.569 34.1384C208.692 33.6043 208.445 33.0703 207.911 32.8649C207.665 32.7827 207.377 32.7416 207.131 32.7005C206.515 32.6595 205.857 32.7416 205.241 32.8238C205.241 34.2205 205.241 35.5762 205.241 36.9319C205.57 36.9319 205.857 36.9319 206.186 36.9319C206.186 36.3978 206.186 35.8638 206.186 35.3297C206.391 35.3297 206.597 35.3297 206.761 35.3297C207.213 35.3708 207.377 35.5351 207.459 35.987C207.542 36.2746 207.624 36.5622 207.706 36.8497C207.706 36.8908 207.788 36.973 207.829 36.973C208.117 36.8908 208.445 36.8908 208.733 36.8908ZM149.576 35.4941C149.165 35.0832 148.672 34.7957 148.097 34.5903C147.563 34.3849 146.988 34.3027 146.413 34.3027C145.222 34.3027 144.195 34.7546 143.332 35.6173C142.469 36.48 141.976 37.7124 141.853 39.2324H151.014C150.973 38.4108 150.85 37.6714 150.562 37.0551C150.357 36.4389 150.028 35.9049 149.576 35.4941ZM102.908 34.5903C99.293 34.5903 97.4854 36.8497 97.4854 41.4097C97.4854 45.9697 99.293 48.2703 102.908 48.2703C106.523 48.2703 108.331 45.9697 108.331 41.4097C108.331 36.8908 106.523 34.5903 102.908 34.5903ZM207.09 33.44C206.802 33.3578 206.515 33.3578 206.227 33.3989C206.186 33.3989 206.145 33.44 206.145 33.4811C206.145 33.8508 206.145 34.1795 206.145 34.5903C206.473 34.5492 206.802 34.5492 207.131 34.467C207.418 34.4259 207.583 34.1795 207.583 33.933C207.542 33.7276 207.377 33.5222 207.09 33.44ZM228 29.0443V70.2486C228 72.96 225.782 75.1784 223.07 75.1784H4.92973C2.21838 75.1784 0 72.96 0 70.2486V4.92973C0 2.21838 2.21838 0 4.92973 0H188.521C188.357 0.451892 188.192 0.944865 188.11 1.47892C187.782 3.45081 188.151 5.38162 189.096 6.98378C188.726 7.72324 188.439 8.54486 188.275 9.40757C187.494 13.9676 190.575 18.2811 195.135 19.0616C195.669 19.1438 196.162 19.1849 196.655 19.1849C196.902 22.9643 199.695 26.2508 203.598 26.9081C205.077 27.1546 206.515 26.9903 207.829 26.5384C208.979 28.7978 211.157 30.4822 213.827 30.9341C216.744 31.427 219.578 30.3178 221.427 28.2638C222.29 28.7568 223.235 29.1265 224.262 29.2908C225.576 29.4962 226.85 29.4141 228 29.0443ZM53.9805 52.6659L60.4303 30.1946H54.3092L50.8995 44.6141L47.3665 30.1946H41.3276L38.2054 44.6141L34.5492 30.1946H28.3049L34.7135 52.6659H40.7935L44.3676 39.6022L47.9416 52.6659H53.9805ZM65.853 42.9708H81.3405C81.3405 38.493 80.4368 35.1654 78.6703 32.9059C76.9038 30.6876 74.2746 29.5784 70.7827 29.5784C69.0573 29.5784 67.4962 29.8249 66.1816 30.3589C64.8259 30.893 63.7168 31.6735 62.7719 32.6595C61.827 33.6454 61.1287 34.8778 60.6357 36.2746C60.1427 37.6714 59.8962 39.2324 59.8962 40.9989C59.8962 49.1741 63.6346 53.2411 71.1524 53.2411C73.5762 53.2411 75.6303 52.6249 77.3557 51.3514C79.0811 50.1189 80.3135 48.3114 81.0119 46.0108H74.8908C74.6854 46.7914 74.1924 47.4076 73.453 47.8595C72.7135 48.3114 71.8508 48.5168 70.8649 48.5168C69.3859 48.5168 68.2357 48.0238 67.3319 46.9968C66.4281 46.0108 65.9351 44.6551 65.853 42.9708ZM89.3513 21.9373H83.3946V52.6249H89.3513V21.9373ZM114.329 41.4097C114.329 39.6022 114.082 38 113.548 36.5211C113.014 35.0422 112.234 33.8097 111.248 32.7827C110.262 31.7557 109.07 30.9751 107.674 30.4C106.277 29.8249 104.675 29.5373 102.908 29.5373C101.101 29.5373 99.4984 29.8249 98.1016 30.4C96.7049 30.9751 95.4724 31.7557 94.4865 32.7827C93.5005 33.8097 92.72 35.0832 92.1859 36.5211C91.6519 38 91.4054 39.6022 91.4054 41.3686C91.4054 43.0941 91.6519 44.6962 92.1859 46.1751C92.72 47.6541 93.4595 48.8865 94.4454 49.9135C95.4313 50.9405 96.6638 51.7622 98.0605 52.3373C99.4984 52.9124 101.101 53.2 102.949 53.2C104.675 53.2 106.277 52.9124 107.674 52.3373C109.07 51.7622 110.303 50.9816 111.289 49.9546C112.275 48.9276 113.055 47.6951 113.589 46.2162C114.041 44.8195 114.329 43.2173 114.329 41.4097ZM128.132 52.6659L136.225 30.1946H129.981L125.215 45.0249L120.491 30.1946H113.877L121.929 52.6659H128.132ZM141.689 42.9708H157.176C157.176 38.493 156.272 35.1654 154.506 32.9059C152.739 30.6876 150.11 29.5784 146.618 29.5784C144.893 29.5784 143.332 29.8249 142.017 30.3589C140.662 30.893 139.552 31.6735 138.608 32.6595C137.663 33.6454 136.964 34.8778 136.471 36.2746C135.978 37.6714 135.732 39.2324 135.732 40.9989C135.732 49.1741 139.47 53.2411 146.988 53.2411C149.412 53.2411 151.466 52.6249 153.191 51.3514C154.917 50.1189 156.149 48.3114 156.848 46.0108H150.726C150.521 46.7914 150.028 47.4076 149.289 47.8595C148.549 48.3114 147.686 48.5168 146.701 48.5168C145.222 48.5168 144.071 48.0238 143.168 46.9968C142.264 46.0108 141.771 44.6551 141.689 42.9708ZM178.826 38.4519C178.826 37.0551 178.662 35.7816 178.333 34.6724C178.004 33.5632 177.47 32.6184 176.731 31.8789C175.991 31.1395 175.005 30.5643 173.773 30.1535C172.541 29.7427 171.021 29.5784 169.254 29.5784C167.446 29.5784 165.926 29.7838 164.694 30.1535C163.462 30.5232 162.435 31.0573 161.654 31.7557C160.874 32.4541 160.298 33.2757 159.97 34.2616C159.6 35.2476 159.436 36.3157 159.395 37.4659H164.941C165.105 36.48 165.475 35.6584 166.05 35.0422C166.625 34.4259 167.611 34.1384 169.008 34.1384C170.158 34.1384 171.103 34.3438 171.76 34.7546C172.458 35.1654 172.787 35.7405 172.787 36.48C172.787 37.2605 172.541 37.8357 172.006 38.2054C171.472 38.5751 170.486 38.8216 169.008 39.0681C167.529 39.2735 166.132 39.52 164.858 39.7665C163.585 40.013 162.517 40.4238 161.613 40.9578C160.709 41.4919 159.97 42.2724 159.477 43.2173C158.943 44.1622 158.696 45.4768 158.696 47.0789C158.696 48.8865 159.312 50.4065 160.504 51.5157C161.695 52.6659 163.585 53.2411 166.173 53.2411C167.693 53.2411 169.049 52.9946 170.199 52.5427C171.349 52.0908 172.294 51.4335 172.992 50.653C173.034 51.4335 173.157 52.0908 173.362 52.6659H178.908V38.4519H178.826ZM199.695 30.1535H187.289V24.1146H181.455V44.2032C181.455 45.4357 181.619 46.5859 181.948 47.6951C182.277 48.8043 182.811 49.7492 183.55 50.5708C184.29 51.3924 185.235 52.0497 186.385 52.5427C187.535 53.0357 188.932 53.2822 190.575 53.2822C192.177 53.2822 193.533 53.0357 194.683 52.5427C195.834 52.0497 196.778 51.3924 197.518 50.5708C198.257 49.7492 198.791 48.7632 199.161 47.6951C199.531 46.627 199.695 45.4768 199.695 44.2854V37.8357H194.149V43.6692C194.149 45.0659 193.862 46.1341 193.286 46.9146C192.711 47.6951 191.849 48.0649 190.657 48.0649C189.425 48.0649 188.562 47.6951 188.028 46.9146C187.494 46.1341 187.248 45.0249 187.248 43.587V34.3849H199.654V30.1535H199.695ZM210.869 33.8508C210.458 31.9611 208.774 30.6465 206.638 30.6465C206.474 30.6465 206.186 30.6876 205.939 30.7287C203.803 31.1395 202.324 33.0292 202.571 35.2476C202.653 36.1103 203.023 36.8908 203.598 37.507C204.748 38.7395 206.186 39.1503 207.829 38.7395C210.048 38.2465 211.362 36.0692 210.869 33.8508Z" fill="url(#paint0_linear_104_1373)"/>
<defs>
<linearGradient id="paint0_linear_104_1373" x1="0" y1="37.5961" x2="228" y2="37.5961" gradientUnits="userSpaceOnUse">
<stop offset="1.11884e-07" stop-color="#D9F4D2"/>
<stop offset="1" stop-color="#58C6FA"/>
</linearGradient>
</defs>
</svg>
