<svg width="560" height="314" viewBox="0 0 560 314" fill="none" xmlns="http://www.w3.org/2000/svg">
<g clip-path="url(#clip0_2105_638)">
<path d="M450.112 186.15H366.496C357.402 186.15 350.074 177.559 350.074 168C350.074 158.441 357.402 149.85 366.496 149.85H509.323C518.417 149.85 525.745 141.864 525.745 132.305C525.745 122.746 518.417 114.76 509.323 114.76H397.508C388.414 114.76 381.086 107.379 381.086 97.82C381.086 88.261 388.414 80.88 397.508 80.88H434.017C443.111 80.88 450.439 73.499 450.439 63.94C450.439 54.381 443.111 47 434.017 47H181.601C172.506 47 165.179 54.381 165.179 63.94C165.179 73.499 172.506 80.88 181.601 80.88H198.023C207.117 80.88 214.445 88.261 214.445 97.82C214.445 107.379 207.117 114.76 198.023 114.76H73.1887C64.0944 114.76 56.7666 122.746 56.7666 132.305C56.7666 141.864 64.0944 149.85 73.1887 149.85H104.201C113.295 149.85 120.623 158.441 120.623 168C120.623 177.559 113.23 186.15 104.201 186.15H85.9469C76.8526 186.15 69.5248 193.531 69.5248 203.09C69.5248 212.649 76.8526 220.03 85.9469 220.03H170.674C179.769 220.03 187.096 228.016 187.096 237.575C187.096 247.134 179.769 255.12 170.674 255.12H157.916C148.822 255.12 141.494 262.501 141.494 272.06C141.494 281.619 148.822 289 157.916 289H258.281H269.272H294.789H355.57H417.267C426.362 289 433.689 281.619 433.689 272.06C433.689 262.501 426.362 255.12 417.267 255.12H402.677C393.583 255.12 386.255 247.134 386.255 237.575C386.255 228.016 393.583 220.03 402.677 220.03H450.112C459.206 220.03 466.534 212.649 466.534 203.09C466.534 193.531 459.206 186.15 450.112 186.15ZM295.705 80.638C296.621 80.8195 297.537 80.88 298.453 80.88H292.957C293.873 80.88 294.789 80.759 295.705 80.638Z" fill="#F9F9F9"/>
<path d="M541.774 186.15H514.295C505.332 186.15 498.004 193.652 498.004 203.09C498.004 212.528 505.266 220.03 514.295 220.03H541.774C550.738 220.03 558.066 212.528 558.066 203.09C558 193.652 550.738 186.15 541.774 186.15Z" fill="#F9F9F9"/>
<path d="M105.509 255.12H71.2912C62.2624 255.12 55 262.622 55 272.06C55 281.498 62.2624 289 71.2912 289H105.575C114.538 289 121.866 281.498 121.866 272.06C121.801 262.622 114.538 255.12 105.509 255.12Z" fill="#F9F9F9"/>
<path d="M128.801 80.88H136.587C145.551 80.88 152.878 73.378 152.878 63.94C152.878 54.502 145.616 47 136.653 47H128.867C119.838 47 112.576 54.502 112.576 63.94C112.576 73.378 119.838 80.88 128.801 80.88Z" fill="#F9F9F9"/>
</g>
<path fill-rule="evenodd" clip-rule="evenodd" d="M282.5 252C329.579 252 368 213.579 368 166.5C368 119.421 329.579 81 282.5 81C235.421 81 197 119.421 197 166.5C197 213.579 235.421 252 282.5 252ZM282.501 242.801C324.71 242.801 358.801 208.709 358.801 166.5C358.801 124.291 324.71 90.1993 282.501 90.1993C240.292 90.1993 206.2 124.291 206.2 166.5C206.2 208.709 240.292 242.801 282.501 242.801Z" fill="url(#paint0_linear_2105_638)"/>
<path fill-rule="evenodd" clip-rule="evenodd" d="M247.697 190.851C247.697 188.366 249.712 186.351 252.197 186.351H311.181C313.667 186.351 315.681 188.366 315.681 190.851C315.681 193.337 313.667 195.351 311.181 195.351H252.197C249.712 195.351 247.697 193.337 247.697 190.851Z" fill="url(#paint1_linear_2105_638)"/>
<path d="M251.115 170.288C256.495 170.288 260.856 165.927 260.856 160.547C260.856 155.168 256.495 150.807 251.115 150.807C245.735 150.807 241.375 155.168 241.375 160.547C241.375 165.927 245.735 170.288 251.115 170.288Z" fill="url(#paint2_linear_2105_638)"/>
<path d="M313.346 170.288C318.726 170.288 323.086 165.927 323.086 160.547C323.086 155.168 318.726 150.807 313.346 150.807C307.966 150.807 303.605 155.168 303.605 160.547C303.605 165.927 307.966 170.288 313.346 170.288Z" fill="url(#paint3_linear_2105_638)"/>
<g clip-path="url(#clip1_2105_638)">
<path d="M30.99 91.9945C26.4177 91.9945 22.7163 88.2944 22.7163 83.7237C22.7163 79.153 26.4177 75.4529 30.99 75.4529C35.5623 75.4529 39.2637 79.153 39.2637 83.7237C39.2637 88.2944 35.5623 91.9945 30.99 91.9945ZM30.99 78.3549C28.0144 78.3549 25.6194 80.7491 25.6194 83.7237C25.6194 86.6982 28.0144 89.0924 30.99 89.0924C33.9657 89.0924 36.3607 86.6982 36.3607 83.7237C36.3607 80.7491 33.9657 78.3549 30.99 78.3549Z" fill="url(#paint4_linear_2105_638)"/>
<path d="M528.139 314C523.567 314 519.865 310.3 519.865 305.729C519.865 301.158 523.567 297.458 528.139 297.458C532.711 297.458 536.413 301.158 536.413 305.729C536.413 310.3 532.711 314 528.139 314ZM528.139 300.36C525.163 300.36 522.768 302.755 522.768 305.729C522.768 308.704 525.163 311.098 528.139 311.098C531.115 311.098 533.51 308.704 533.51 305.729C533.51 302.755 531.115 300.36 528.139 300.36Z" fill="url(#paint5_linear_2105_638)"/>
<path d="M390.97 16.5416C386.397 16.5416 382.696 12.8415 382.696 8.27079C382.696 3.70009 386.397 0 390.97 0C395.542 0 399.243 3.70009 399.243 8.27079C399.243 12.8415 395.542 16.5416 390.97 16.5416ZM390.97 2.90203C387.994 2.90203 385.599 5.29621 385.599 8.27079C385.599 11.2454 387.994 13.6396 390.97 13.6396C393.945 13.6396 396.34 11.2454 396.34 8.27079C396.34 5.29621 393.945 2.90203 390.97 2.90203Z" fill="url(#paint6_linear_2105_638)"/>
<path d="M182.675 62.5388C174.764 62.5388 168.305 56.0818 168.305 48.1738C168.305 40.2657 174.764 33.8087 182.675 33.8087C190.586 33.8087 197.045 40.2657 197.045 48.1738C197.045 56.0818 190.586 62.5388 182.675 62.5388ZM182.675 36.7107C176.361 36.7107 171.208 41.8618 171.208 48.1738C171.208 54.4857 176.361 59.6368 182.675 59.6368C188.989 59.6368 194.142 54.4857 194.142 48.1738C194.142 41.8618 188.989 36.7107 182.675 36.7107Z" fill="url(#paint7_linear_2105_638)"/>
<path d="M55.6663 229.841C51.094 229.841 47.3926 226.141 47.3926 221.57C47.3926 217 51.094 213.299 55.6663 213.299C60.2386 213.299 63.94 217 63.94 221.57C63.94 226.141 60.2386 229.841 55.6663 229.841ZM55.6663 216.201C52.6907 216.201 50.2956 218.596 50.2956 221.57C50.2956 224.545 52.6907 226.939 55.6663 226.939C58.6419 226.939 61.037 224.545 61.037 221.57C61.037 218.596 58.6419 216.201 55.6663 216.201Z" fill="url(#paint8_linear_2105_638)"/>
<path d="M285.08 282.658L292.483 275.258C293.064 274.677 293.064 273.807 292.483 273.226C291.902 272.646 291.032 272.646 290.451 273.226L283.048 280.627L275.645 273.226C275.065 272.646 274.194 272.646 273.613 273.226C273.033 273.807 273.033 274.677 273.613 275.258L281.016 282.658L273.613 290.058C273.033 290.639 273.033 291.509 273.613 292.09C273.903 292.38 274.266 292.525 274.629 292.525C274.992 292.525 275.355 292.38 275.645 292.09L283.048 284.689L290.451 292.09C290.741 292.38 291.104 292.525 291.467 292.525C291.83 292.525 292.193 292.38 292.483 292.09C293.064 291.509 293.064 290.639 292.483 290.058L285.08 282.658Z" fill="url(#paint9_linear_2105_638)"/>
<path d="M525.308 192.695L528.937 189.067C529.518 188.487 529.518 187.616 528.937 187.036C528.357 186.456 527.486 186.456 526.905 187.036L523.276 190.664L519.72 187.036C519.139 186.456 518.269 186.456 517.688 187.036C517.107 187.616 517.107 188.487 517.688 189.067L521.244 192.695L517.688 196.25C517.107 196.83 517.107 197.701 517.688 198.281C517.978 198.572 518.341 198.717 518.704 198.717C519.067 198.717 519.43 198.572 519.72 198.281L523.276 194.726L526.905 198.281C527.195 198.572 527.558 198.717 527.921 198.717C528.284 198.717 528.647 198.572 528.937 198.281C529.518 197.701 529.518 196.83 528.937 196.25L525.308 192.695Z" fill="url(#paint10_linear_2105_638)"/>
<path d="M292.338 62.829L295.966 59.2015C296.547 58.6211 296.547 57.7505 295.966 57.1701C295.386 56.5897 294.515 56.5897 293.934 57.1701L290.306 60.7976L286.749 57.1701C286.169 56.5897 285.298 56.5897 284.717 57.1701C284.137 57.7505 284.137 58.6211 284.717 59.2015L288.273 62.829L284.717 66.384C284.137 66.9644 284.137 67.835 284.717 68.4154C285.007 68.7056 285.37 68.8507 285.733 68.8507C286.096 68.8507 286.459 68.7056 286.749 68.4154L290.306 64.8605L293.934 68.4154C294.225 68.7056 294.588 68.8507 294.95 68.8507C295.313 68.8507 295.676 68.7056 295.966 68.4154C296.547 67.835 296.547 66.9644 295.966 66.384L292.338 62.829Z" fill="url(#paint11_linear_2105_638)"/>
<path d="M525.962 36.4931C523.567 36.4931 521.68 34.5342 521.68 32.2126C521.68 29.8909 523.639 27.9321 525.962 27.9321C528.357 27.9321 530.244 29.8909 530.244 32.2126C530.244 34.5342 528.357 36.4931 525.962 36.4931ZM525.962 29.3831C524.365 29.3831 523.131 30.689 523.131 32.2126C523.131 33.8087 524.438 35.0421 525.962 35.0421C527.558 35.0421 528.792 33.7361 528.792 32.2126C528.792 30.6165 527.558 29.3831 525.962 29.3831Z" fill="#58C6FA"/>
<path d="M555.718 168.536C553.323 168.536 551.436 166.577 551.436 164.255C551.436 161.861 553.396 159.975 555.718 159.975C558.113 159.975 560 161.933 560 164.255C560 166.577 558.113 168.536 555.718 168.536ZM555.718 161.426C554.121 161.426 552.888 162.732 552.888 164.255C552.888 165.851 554.194 167.085 555.718 167.085C557.315 167.085 558.549 165.779 558.549 164.255C558.549 162.659 557.315 161.426 555.718 161.426Z" fill="#58C6FA"/>
<path d="M320.57 265.028C318.611 265.028 317.014 263.432 317.014 261.473C317.014 259.514 318.611 257.918 320.57 257.918C322.53 257.918 324.127 259.514 324.127 261.473C324.127 263.432 322.53 265.028 320.57 265.028ZM320.57 259.369C319.409 259.369 318.466 260.312 318.466 261.473C318.466 262.634 319.409 263.577 320.57 263.577C321.732 263.577 322.675 262.634 322.675 261.473C322.675 260.312 321.732 259.369 320.57 259.369Z" fill="#58C6FA"/>
<path d="M147.838 24.1594C145.879 24.1594 144.282 22.5633 144.282 20.6044C144.282 18.6456 145.879 17.0494 147.838 17.0494C149.798 17.0494 151.395 18.6456 151.395 20.6044C151.395 22.5633 149.798 24.1594 147.838 24.1594ZM147.838 18.5005C146.677 18.5005 145.734 19.4436 145.734 20.6044C145.734 21.7652 146.677 22.7084 147.838 22.7084C149 22.7084 149.943 21.7652 149.943 20.6044C149.943 19.4436 149 18.5005 147.838 18.5005Z" fill="#58C6FA"/>
<path d="M60.0206 274.46C58.061 274.46 56.4644 272.864 56.4644 270.905C56.4644 268.946 58.061 267.35 60.0206 267.35C61.9802 267.35 63.5768 268.946 63.5768 270.905C63.5768 272.864 61.9802 274.46 60.0206 274.46ZM60.0206 268.801C58.8594 268.801 57.9159 269.744 57.9159 270.905C57.9159 272.066 58.8594 273.009 60.0206 273.009C61.1818 273.009 62.1253 272.066 62.1253 270.905C62.1253 269.744 61.1818 268.801 60.0206 268.801Z" fill="#58C6FA"/>
<path d="M240.881 15.3082L239.865 14.2925L237.253 16.8318L234.712 14.2925L233.696 15.3082L236.236 17.8475L233.696 20.4593L234.712 21.475L237.253 18.8632L239.865 21.475L240.881 20.4593L238.341 17.8475L240.881 15.3082Z" fill="#58C6FA"/>
<path d="M555.137 269.236L554.121 268.22L551.508 270.76L548.968 268.22L547.952 269.236L550.492 271.775L547.952 274.387L548.968 275.403L551.508 272.791L554.121 275.403L555.137 274.387L552.597 271.775L555.137 269.236Z" fill="#58C6FA"/>
<path d="M421.253 28.0747L415.095 34.2307L416.122 35.2568L422.28 29.1007L421.253 28.0747Z" fill="#58C6FA"/>
<path d="M416.122 28.0747L415.095 29.1007L421.253 35.2568L422.28 34.2307L416.122 28.0747Z" fill="#58C6FA"/>
<path d="M7.18507 197.411L6.169 196.395L3.55625 198.934L1.01607 196.395L0 197.411L2.54018 199.95L0 202.562L1.01607 203.578L3.55625 200.966L6.169 203.578L7.18507 202.562L4.64489 199.95L7.18507 197.411Z" fill="#58C6FA"/>
<path d="M63.7949 94.3886L62.7789 93.3729L60.1661 95.9122L57.6259 93.3729L56.6099 94.3886L59.15 96.9279L56.6099 99.5397L57.6259 100.555L60.1661 97.9436L62.7789 100.555L63.7949 99.5397L61.2548 96.9279L63.7949 94.3886Z" fill="#58C6FA"/>
</g>
<defs>
<linearGradient id="paint0_linear_2105_638" x1="282.5" y1="81" x2="282.5" y2="252" gradientUnits="userSpaceOnUse">
<stop stop-color="#58C6FA"/>
<stop offset="1" stop-color="#D9F4D2"/>
</linearGradient>
<linearGradient id="paint1_linear_2105_638" x1="281.689" y1="153" x2="281.689" y2="210" gradientUnits="userSpaceOnUse">
<stop stop-color="#58C6FA"/>
<stop offset="1" stop-color="#D9F4D2"/>
</linearGradient>
<linearGradient id="paint2_linear_2105_638" x1="251.115" y1="150.807" x2="251.115" y2="170.288" gradientUnits="userSpaceOnUse">
<stop stop-color="#58C6FA"/>
<stop offset="1" stop-color="#D9F4D2"/>
</linearGradient>
<linearGradient id="paint3_linear_2105_638" x1="313.346" y1="150.807" x2="313.346" y2="170.288" gradientUnits="userSpaceOnUse">
<stop stop-color="#58C6FA"/>
<stop offset="1" stop-color="#D9F4D2"/>
</linearGradient>
<linearGradient id="paint4_linear_2105_638" x1="30.99" y1="75.4529" x2="30.99" y2="91.9945" gradientUnits="userSpaceOnUse">
<stop stop-color="#D9F4D2"/>
<stop offset="1" stop-color="#58C6FA"/>
</linearGradient>
<linearGradient id="paint5_linear_2105_638" x1="528.139" y1="297.458" x2="528.139" y2="314" gradientUnits="userSpaceOnUse">
<stop stop-color="#D9F4D2"/>
<stop offset="1" stop-color="#58C6FA"/>
</linearGradient>
<linearGradient id="paint6_linear_2105_638" x1="390.969" y1="0" x2="390.969" y2="16.5416" gradientUnits="userSpaceOnUse">
<stop stop-color="#D9F4D2"/>
<stop offset="1" stop-color="#58C6FA"/>
</linearGradient>
<linearGradient id="paint7_linear_2105_638" x1="182.675" y1="33.8087" x2="182.675" y2="62.5388" gradientUnits="userSpaceOnUse">
<stop stop-color="#D9F4D2"/>
<stop offset="1" stop-color="#58C6FA"/>
</linearGradient>
<linearGradient id="paint8_linear_2105_638" x1="55.6663" y1="213.299" x2="55.6663" y2="229.841" gradientUnits="userSpaceOnUse">
<stop stop-color="#D9F4D2"/>
<stop offset="1" stop-color="#58C6FA"/>
</linearGradient>
<linearGradient id="paint9_linear_2105_638" x1="283.048" y1="272.791" x2="283.048" y2="292.525" gradientUnits="userSpaceOnUse">
<stop stop-color="#D9F4D2"/>
<stop offset="1" stop-color="#58C6FA"/>
</linearGradient>
<linearGradient id="paint10_linear_2105_638" x1="523.313" y1="186.601" x2="523.313" y2="198.717" gradientUnits="userSpaceOnUse">
<stop stop-color="#D9F4D2"/>
<stop offset="1" stop-color="#58C6FA"/>
</linearGradient>
<linearGradient id="paint11_linear_2105_638" x1="290.342" y1="56.7348" x2="290.342" y2="68.8507" gradientUnits="userSpaceOnUse">
<stop stop-color="#D9F4D2"/>
<stop offset="1" stop-color="#58C6FA"/>
</linearGradient>
<clipPath id="clip0_2105_638">
<rect width="503" height="242" fill="white" transform="translate(55 47)"/>
</clipPath>
<clipPath id="clip1_2105_638">
<rect width="560" height="314" fill="white"/>
</clipPath>
</defs>
</svg>
