<svg width="21" height="19" viewBox="0 0 21 19" fill="none" xmlns="http://www.w3.org/2000/svg">
<path d="M10.0215 0C11.6128 0 13.1389 0.632141 14.2641 1.75736C15.3893 2.88258 16.0215 4.4087 16.0215 6V7H20.0215V9H18.8545L18.0975 18.083C18.0767 18.3329 17.9627 18.5658 17.7783 18.7357C17.5938 18.9055 17.3522 18.9999 17.1015 19H2.94148C2.69073 18.9999 2.44918 18.9055 2.26471 18.7357C2.08023 18.5658 1.9663 18.3329 1.94548 18.083L1.18748 9H0.0214844V7H4.02148V6C4.02148 4.4087 4.65363 2.88258 5.77884 1.75736C6.90406 0.632141 8.43019 0 10.0215 0ZM16.8475 9H3.19448L3.86148 17H16.1805L16.8475 9ZM11.0215 11V15H9.02148V11H11.0215ZM7.02148 11V15H5.02148V11H7.02148ZM15.0215 11V15H13.0215V11H15.0215ZM10.0215 2C8.99524 2 8.00826 2.39444 7.26467 3.10172C6.52109 3.80901 6.0778 4.77504 6.02648 5.8L6.02148 6V7H14.0215V6C14.0215 4.97376 13.627 3.98677 12.9198 3.24319C12.2125 2.4996 11.2464 2.05631 10.2215 2.005L10.0215 2Z" fill="#A8A7A7"/>
</svg>
