<svg width="19" height="20" viewBox="0 0 19 20" fill="none" xmlns="http://www.w3.org/2000/svg">
<path d="M9.02148 9C7.96062 9 6.9432 8.57857 6.19306 7.82843C5.44291 7.07828 5.02148 6.06087 5.02148 5C5.02148 3.93913 5.44291 2.92172 6.19306 2.17157C6.9432 1.42143 7.96062 1 9.02148 1C10.0824 1 11.0998 1.42143 11.8499 2.17157C12.6001 2.92172 13.0215 3.93913 13.0215 5C13.0215 6.06087 12.6001 7.07828 11.8499 7.82843C11.0998 8.57857 10.0824 9 9.02148 9Z" stroke="#A8A7A7" stroke-width="2" stroke-linecap="round"/>
<path d="M1.02148 19V18C1.02148 16.4087 1.65363 14.8826 2.77884 13.7574C3.90406 12.6321 5.43019 12 7.02148 12H11.0215C12.6128 12 14.1389 12.6321 15.2641 13.7574C16.3893 14.8826 17.0215 16.4087 17.0215 18V19" stroke="#A8A7A7" stroke-width="2" stroke-linecap="round"/>
</svg>
