<svg width="21" height="21" viewBox="0 0 21 21" fill="none" xmlns="http://www.w3.org/2000/svg">
<path d="M10.5 1.3125C5.42637 1.3125 1.3125 5.42637 1.3125 10.5C1.3125 15.5736 5.42637 19.6875 10.5 19.6875C15.5736 19.6875 19.6875 15.5736 19.6875 10.5C19.6875 5.42637 15.5736 1.3125 10.5 1.3125ZM10.5 18.1289C6.2877 18.1289 2.87109 14.7123 2.87109 10.5C2.87109 6.2877 6.2877 2.87109 10.5 2.87109C14.7123 2.87109 18.1289 6.2877 18.1289 10.5C18.1289 14.7123 14.7123 18.1289 10.5 18.1289Z" fill="white"/>
<path d="M9.51562 6.89062C9.51563 7.1517 9.61934 7.40208 9.80394 7.58668C9.98855 7.77129 10.2389 7.875 10.5 7.875C10.7611 7.875 11.0115 7.77129 11.1961 7.58668C11.3807 7.40208 11.4844 7.1517 11.4844 6.89062C11.4844 6.62955 11.3807 6.37917 11.1961 6.19457C11.0115 6.00996 10.7611 5.90625 10.5 5.90625C10.2389 5.90625 9.98855 6.00996 9.80394 6.19457C9.61934 6.37917 9.51563 6.62955 9.51562 6.89062ZM10.9922 9.1875H10.0078C9.91758 9.1875 9.84375 9.26133 9.84375 9.35156V14.9297C9.84375 15.0199 9.91758 15.0938 10.0078 15.0938H10.9922C11.0824 15.0938 11.1562 15.0199 11.1562 14.9297V9.35156C11.1562 9.26133 11.0824 9.1875 10.9922 9.1875Z" fill="white"/>
</svg>
