<svg width="343" height="209" viewBox="0 0 343 209" fill="none" xmlns="http://www.w3.org/2000/svg">
<path d="M5.64175 61.232C2.59626 61.232 0.130859 58.7692 0.130859 55.7269C0.130859 52.6846 2.59626 50.2218 5.64175 50.2218C8.68724 50.2218 11.1526 52.6846 11.1526 55.7269C11.1526 58.7692 8.68724 61.232 5.64175 61.232ZM5.64175 52.1534C3.65976 52.1534 2.0645 53.747 2.0645 55.7269C2.0645 57.7068 3.65976 59.3004 5.64175 59.3004C7.62373 59.3004 9.21899 57.7068 9.21899 55.7269C9.21899 53.747 7.62373 52.1534 5.64175 52.1534Z" fill="#86BB25"/>
<path d="M336.778 209C333.733 209 331.268 206.537 331.268 203.495C331.268 200.453 333.733 197.99 336.778 197.99C339.824 197.99 342.289 200.453 342.289 203.495C342.289 206.537 339.824 209 336.778 209ZM336.778 199.921C334.796 199.921 333.201 201.515 333.201 203.495C333.201 205.475 334.796 207.068 336.778 207.068C338.76 207.068 340.356 205.475 340.356 203.495C340.356 201.515 338.76 199.921 336.778 199.921Z" fill="#86BB25"/>
<path d="M245.413 11.0102C242.368 11.0102 239.902 8.54737 239.902 5.50508C239.902 2.4628 242.368 0 245.413 0C248.459 0 250.924 2.4628 250.924 5.50508C250.924 8.54737 248.459 11.0102 245.413 11.0102ZM245.413 1.93161C243.431 1.93161 241.836 3.52518 241.836 5.50508C241.836 7.48498 243.431 9.07856 245.413 9.07856C247.395 9.07856 248.99 7.48498 248.99 5.50508C248.99 3.52518 247.395 1.93161 245.413 1.93161Z" fill="#86BB25"/>
<path d="M106.675 41.6262C101.406 41.6262 97.1035 37.3283 97.1035 32.0647C97.1035 26.8011 101.406 22.5032 106.675 22.5032C111.944 22.5032 116.247 26.8011 116.247 32.0647C116.247 37.3283 111.944 41.6262 106.675 41.6262ZM106.675 24.4348C102.469 24.4348 99.0372 27.8635 99.0372 32.0647C99.0372 36.2659 102.469 39.6945 106.675 39.6945C110.881 39.6945 114.313 36.2659 114.313 32.0647C114.313 27.8635 110.881 24.4348 106.675 24.4348Z" fill="#86BB25"/>
<path d="M22.0773 152.983C19.0318 152.983 16.5664 150.521 16.5664 147.478C16.5664 144.436 19.0318 141.973 22.0773 141.973C25.1228 141.973 27.5882 144.436 27.5882 147.478C27.5882 150.521 25.1228 152.983 22.0773 152.983ZM22.0773 143.905C20.0953 143.905 18.5001 145.498 18.5001 147.478C18.5001 149.458 20.0953 151.052 22.0773 151.052C24.0593 151.052 25.6545 149.458 25.6545 147.478C25.6545 145.498 24.0593 143.905 22.0773 143.905Z" fill="#86BB25"/>
<path d="M174.884 188.139L179.815 183.213C180.202 182.827 180.202 182.247 179.815 181.861C179.428 181.475 178.848 181.475 178.461 181.861L173.53 186.786L168.6 181.861C168.213 181.475 167.633 181.475 167.246 181.861C166.859 182.247 166.859 182.827 167.246 183.213L172.177 188.139L167.246 193.064C166.859 193.451 166.859 194.03 167.246 194.416C167.439 194.61 167.681 194.706 167.923 194.706C168.165 194.706 168.406 194.61 168.6 194.416L173.53 189.491L178.461 194.416C178.655 194.61 178.896 194.706 179.138 194.706C179.38 194.706 179.621 194.61 179.815 194.416C180.202 194.03 180.202 193.451 179.815 193.064L174.884 188.139Z" fill="#86BB25"/>
<path d="M334.893 128.259L337.31 125.844C337.697 125.458 337.697 124.878 337.31 124.492C336.924 124.106 336.343 124.106 335.957 124.492L333.54 126.907L331.171 124.492C330.784 124.106 330.204 124.106 329.817 124.492C329.431 124.878 329.431 125.458 329.817 125.844L332.186 128.259L329.817 130.625C329.431 131.011 329.431 131.591 329.817 131.977C330.011 132.17 330.252 132.267 330.494 132.267C330.736 132.267 330.978 132.17 331.171 131.977L333.54 129.611L335.957 131.977C336.15 132.17 336.392 132.267 336.634 132.267C336.875 132.267 337.117 132.17 337.31 131.977C337.697 131.591 337.697 131.011 337.31 130.625L334.893 128.259Z" fill="#86BB25"/>
<path d="M179.718 41.8193L182.135 39.4048C182.522 39.0185 182.522 38.439 182.135 38.0527C181.749 37.6664 181.169 37.6664 180.782 38.0527L178.365 40.4672L175.996 38.0527C175.609 37.6664 175.029 37.6664 174.643 38.0527C174.256 38.439 174.256 39.0185 174.643 39.4048L177.011 41.8193L174.643 44.1855C174.256 44.5719 174.256 45.1513 174.643 45.5377C174.836 45.7308 175.078 45.8274 175.319 45.8274C175.561 45.8274 175.803 45.7308 175.996 45.5377L178.365 43.1714L180.782 45.5377C180.975 45.7308 181.217 45.8274 181.459 45.8274C181.7 45.8274 181.942 45.7308 182.135 45.5377C182.522 45.1513 182.522 44.5719 182.135 44.1855L179.718 41.8193Z" fill="#86BB25"/>
</svg>
