<svg width="97" height="97" viewBox="0 0 97 97" fill="none" xmlns="http://www.w3.org/2000/svg">
<path d="M97 48.5C97 75.2057 75.2057 97 48.5 97C21.7943 97 0 75.2057 0 48.5C0 21.7943 21.7943 0 48.5 0C75.2057 0 97 21.7943 97 48.5Z" fill="#D9F4D2"/>
<path d="M91.782 48.5C91.782 72.443 72.4434 91.7816 48.5004 91.7816C24.5574 91.7816 5.21875 72.443 5.21875 48.5C5.21875 24.557 24.5574 5.21835 48.5004 5.21835C72.4434 5.21835 91.782 24.557 91.782 48.5Z" fill="#86BB25"/>
<path d="M10.4371 48.5C10.4371 31.0032 19.646 15.962 32.8453 8.28796C16.8833 14.4272 5.21875 30.0823 5.21875 48.5C5.21875 66.9177 16.5763 82.5728 32.8453 88.712C19.339 81.038 10.4371 65.6899 10.4371 48.5Z" fill="#86BB25"/>
<path d="M40.2117 46.3513C40.2117 46.0443 40.2117 45.7374 40.2117 45.4304C40.2117 40.212 35.9142 36.2215 31.0028 36.2215C25.7845 36.2215 21.7939 40.519 21.7939 45.4304C21.7939 45.7374 21.7939 46.0443 21.7939 46.3513" stroke="#D9F4D2" stroke-width="3" stroke-miterlimit="10"/>
<path d="M75.5115 46.3513C75.5115 46.0443 75.5115 45.7374 75.5115 45.4304C75.5115 40.212 71.214 36.2215 66.3026 36.2215C61.0843 36.2215 57.0938 40.519 57.0938 45.4304C57.0938 45.7374 57.0938 46.0443 57.0938 46.3513" stroke="#D9F4D2" stroke-width="3" stroke-miterlimit="10"/>
<path d="M33.7656 58.3228C33.7656 58.9367 33.7656 59.2437 33.7656 59.8576C33.7656 68.1456 40.5188 74.5918 48.4998 74.5918C56.4808 74.5918 63.234 67.8386 63.234 59.8576C63.234 59.2437 63.234 58.9367 63.234 58.3228H33.7656Z" fill="#D9F4D2"/>
</svg>
