<svg width="72" height="56" viewBox="0 0 72 56" fill="none" xmlns="http://www.w3.org/2000/svg">
<path d="M47.5551 32.0282C48.4759 24.1681 43.8088 20.4525 38.1494 16.8638C45.3677 11.6454 52.0683 6.51827 59.0802 1.8522C62.6667 -0.533583 67.9719 1.11501 70.4122 4.64331C72.9956 8.3802 72.2955 13.3129 68.7149 16.4229C67.9826 17.0593 67.1883 17.627 66.4047 18.2018C60.3493 22.6486 54.2891 27.0895 47.5551 32.0282Z" fill="white"/>
<path d="M24.574 32.1039C17.0206 26.5063 10.0051 21.5368 3.2651 16.2225C-0.545601 13.218 -0.848552 7.77802 2.03899 4.16439C4.89314 0.591059 10.2591 -0.284793 14.182 2.47195C20.0441 6.59047 25.7071 10.9887 31.5716 15.1025C33.6887 16.5875 33.3798 17.4124 31.4345 18.6047C26.7543 21.4728 23.862 25.397 24.574 32.1039Z" fill="white"/>
<path d="M0.283054 21.2852C6.25493 25.6869 11.6925 29.6822 17.105 33.7094C17.4556 33.9702 17.8445 34.4751 17.8409 34.8638C17.7944 39.9257 18.6531 45.0635 17.3578 50.0259C16.3285 53.9714 12.3795 56.3003 8.36244 55.934C4.07347 55.5429 0.448837 52.4484 0.347457 48.3489C0.133963 39.5714 0.283054 30.7844 0.283054 21.2852Z" fill="#F29801"/>
<path d="M71.1087 21.2852C65.1368 25.6869 59.6992 29.6822 54.2867 33.7094C53.936 33.9702 53.5472 34.4751 53.5508 34.8638C53.5973 39.9257 52.7385 45.0635 54.0338 50.0259C55.0631 53.9714 59.0122 56.3003 63.0293 55.934C67.3182 55.5429 70.9429 52.4484 71.0443 48.3489C71.2578 39.5714 71.1087 30.7844 71.1087 21.2852Z" fill="#F29801"/>
<path d="M36.1436 38.2947C31.127 38.3469 27.3008 34.6752 27.2173 29.7306C27.1529 25.9498 32.7837 18.866 35.9599 18.732C38.8999 18.6076 44.9147 25.8799 44.91 29.554C44.9028 34.4962 41.1446 38.2437 36.1436 38.2947Z" fill="white"/>
</svg>
