<svg width="835" height="276" viewBox="0 0 835 276" fill="none" xmlns="http://www.w3.org/2000/svg">
<path d="M273.675 135.634C274.577 137.89 275.178 140.597 275.329 143.604H241.796C242.247 137.89 244.052 133.529 247.209 130.371C250.367 127.214 254.126 125.56 258.487 125.56C260.592 125.56 262.698 125.86 264.652 126.612C266.607 127.364 268.412 128.417 270.066 129.92C271.569 131.424 272.772 133.379 273.675 135.634ZM618.775 157.288C612.46 158.491 608.249 160.145 605.843 161.949C603.438 163.904 602.385 166.611 602.385 170.069C602.385 176.234 605.843 179.242 612.911 179.242C615.768 179.242 618.324 178.791 620.73 177.889C623.136 176.986 625.241 175.633 626.895 173.979C628.549 172.325 630.053 170.52 631.106 168.265C632.158 166.16 632.76 163.754 632.76 161.348L632.91 152.326C631.858 153.378 630.204 154.28 628.098 155.032C625.843 155.784 622.685 156.536 618.775 157.288ZM767.943 124.056C768.996 128.266 768.244 132.025 765.537 135.334C763.282 138.04 760.425 139.243 757.567 139.243C750.951 139.243 746.29 135.033 745.387 129.018C744.485 123.304 747.793 117.74 752.906 115.936C759.372 113.68 766.289 117.44 767.943 124.056ZM764.033 135.033C763.883 134.281 763.582 133.68 763.432 133.078C763.131 132.176 762.981 131.274 762.68 130.371C762.379 129.168 761.628 128.266 760.425 127.815L760.274 127.665C760.575 127.514 760.725 127.514 761.026 127.364C762.079 126.913 762.981 126.161 763.432 124.958C763.883 123.003 762.981 121.048 761.026 120.297C760.124 119.996 759.071 119.845 758.169 119.695C755.913 119.545 753.507 119.845 751.252 120.146C751.252 125.259 751.252 130.221 751.252 135.183C752.455 135.183 753.507 135.183 754.71 135.183C754.71 133.228 754.71 131.274 754.71 129.319C755.462 129.319 756.214 129.319 756.816 129.319C758.47 129.469 759.071 130.071 759.372 131.725C759.673 132.777 759.973 133.83 760.274 134.883C760.274 135.033 760.575 135.334 760.725 135.334C761.778 135.033 762.981 135.033 764.033 135.033ZM547.5 129.92C545.996 128.417 544.191 127.364 542.086 126.612C540.131 125.86 538.026 125.56 535.921 125.56C531.56 125.56 527.801 127.214 524.643 130.371C521.486 133.529 519.681 138.04 519.23 143.604H552.763C552.612 140.597 552.161 137.89 551.109 135.634C550.357 133.379 549.154 131.424 547.5 129.92ZM376.679 126.612C363.446 126.612 356.83 134.883 356.83 151.574C356.83 168.265 363.446 176.686 376.679 176.686C389.911 176.686 396.528 168.265 396.528 151.574C396.528 135.033 389.911 126.612 376.679 126.612ZM758.019 122.402C756.966 122.101 755.913 122.101 754.861 122.251C754.71 122.251 754.56 122.402 754.56 122.552C754.56 123.905 754.56 125.108 754.56 126.612C755.763 126.462 756.966 126.462 758.169 126.161C759.222 126.011 759.823 125.108 759.823 124.206C759.673 123.454 759.071 122.702 758.019 122.402ZM834.557 106.312V257.134C834.557 267.058 826.437 275.178 816.513 275.178H18.0445C8.12002 275.178 0 267.058 0 257.134V18.0445C0 8.12002 8.12002 0 18.0445 0H690.051C689.45 1.65408 688.848 3.45853 688.547 5.41334C687.344 12.6311 688.698 19.6986 692.156 25.563C690.803 28.2697 689.75 31.2771 689.149 34.4349C686.292 51.126 697.57 66.915 714.261 69.772C716.216 70.0727 718.02 70.2231 719.824 70.2231C720.727 84.0572 730.952 96.0869 745.237 98.4928C750.65 99.395 755.913 98.7935 760.725 97.1395C764.936 105.41 772.905 111.575 782.679 113.229C793.356 115.034 803.731 110.974 810.498 103.455C813.656 105.259 817.114 106.613 820.874 107.214C825.685 107.966 830.347 107.665 834.557 106.312ZM197.587 192.775L221.195 110.522H198.79L186.309 163.303L173.377 110.522H151.273L139.845 163.303L126.462 110.522H103.605L127.063 192.775H149.318L162.4 144.957L175.483 192.775H197.587ZM241.044 157.288H297.734C297.734 140.897 294.426 128.717 287.96 120.447C281.494 112.327 271.87 108.267 259.089 108.267C252.773 108.267 247.059 109.169 242.247 111.124C237.285 113.079 233.225 115.936 229.766 119.545C226.308 123.154 223.752 127.665 221.947 132.777C220.143 137.89 219.24 143.604 219.24 150.07C219.24 179.994 232.924 194.88 260.442 194.88C269.314 194.88 276.832 192.625 283.148 187.963C289.464 183.452 293.975 176.836 296.531 168.415H274.126C273.374 171.272 271.569 173.528 268.863 175.182C266.156 176.836 262.998 177.588 259.389 177.588C253.976 177.588 249.766 175.783 246.458 172.024C243.149 168.415 241.345 163.453 241.044 157.288ZM327.056 80.298H305.252V192.625H327.056V80.298ZM418.482 151.574C418.482 144.957 417.579 139.093 415.625 133.68C413.67 128.266 410.813 123.755 407.204 119.996C403.595 116.237 399.234 113.38 394.122 111.274C389.009 109.169 383.144 108.117 376.679 108.117C370.062 108.117 364.198 109.169 359.085 111.274C353.973 113.38 349.461 116.237 345.853 119.996C342.244 123.755 339.387 128.417 337.432 133.68C335.477 139.093 334.575 144.957 334.575 151.423C334.575 157.739 335.477 163.603 337.432 169.017C339.387 174.43 342.093 178.941 345.702 182.7C349.311 186.46 353.822 189.467 358.935 191.572C364.198 193.677 370.062 194.73 376.829 194.73C383.145 194.73 389.009 193.677 394.122 191.572C399.234 189.467 403.745 186.61 407.354 182.851C410.963 179.091 413.82 174.58 415.775 169.167C417.429 164.054 418.482 158.19 418.482 151.574ZM469.006 192.775L498.629 110.522H475.773L458.33 164.806L441.037 110.522H416.828L446.3 192.775H469.006ZM518.628 157.288H575.318C575.318 140.897 572.01 128.717 565.544 120.447C559.078 112.327 549.454 108.267 536.673 108.267C530.357 108.267 524.643 109.169 519.831 111.124C514.869 113.079 510.809 115.936 507.351 119.545C503.892 123.154 501.336 127.665 499.531 132.777C497.727 137.89 496.825 143.604 496.825 150.07C496.825 179.994 510.508 194.88 538.026 194.88C546.898 194.88 554.417 192.625 560.732 187.963C567.048 183.452 571.559 176.836 574.115 168.415H551.71C550.958 171.272 549.154 173.528 546.447 175.182C543.74 176.836 540.583 177.588 536.974 177.588C531.56 177.588 527.35 175.783 524.042 172.024C520.734 168.415 518.929 163.453 518.628 157.288ZM654.564 140.747C654.564 135.634 653.962 130.973 652.759 126.913C651.556 122.853 649.601 119.394 646.895 116.688C644.188 113.981 640.579 111.876 636.068 110.372C631.557 108.868 625.993 108.267 619.527 108.267C612.911 108.267 607.347 109.019 602.836 110.372C598.325 111.725 594.566 113.68 591.709 116.237C588.852 118.793 586.746 121.8 585.543 125.409C584.19 129.018 583.589 132.928 583.438 137.138H603.738C604.34 133.529 605.693 130.522 607.798 128.266C609.904 126.011 613.512 124.958 618.625 124.958C622.835 124.958 626.294 125.71 628.7 127.214C631.256 128.717 632.459 130.823 632.459 133.529C632.459 136.386 631.557 138.491 629.602 139.845C627.647 141.198 624.038 142.1 618.625 143.003C613.212 143.754 608.099 144.657 603.438 145.559C598.776 146.461 594.866 147.965 591.558 149.92C588.25 151.874 585.543 154.731 583.739 158.19C581.784 161.648 580.882 166.46 580.882 172.325C580.882 178.941 583.138 184.505 587.498 188.565C591.859 192.775 598.776 194.88 608.249 194.88C613.813 194.88 618.775 193.978 622.986 192.324C627.196 190.67 630.655 188.264 633.211 185.407C633.361 188.264 633.812 190.67 634.564 192.775H654.864V140.747H654.564ZM730.952 110.372H685.54V88.2676H664.187V161.799C664.187 166.31 664.789 170.52 665.992 174.58C667.195 178.64 669.15 182.099 671.856 185.106C674.563 188.114 678.021 190.52 682.232 192.324C686.442 194.129 691.555 195.031 697.57 195.031C703.434 195.031 708.396 194.129 712.607 192.324C716.817 190.52 720.276 188.114 722.982 185.106C725.689 182.099 727.644 178.49 728.997 174.58C730.35 170.671 730.952 166.46 730.952 162.1V138.491H710.652V159.844C710.652 164.957 709.599 168.866 707.494 171.723C705.389 174.58 702.231 175.934 697.87 175.934C693.359 175.934 690.201 174.58 688.247 171.723C686.292 168.866 685.39 164.806 685.39 159.543V125.86H730.802V110.372H730.952ZM771.853 123.905C770.349 116.988 764.184 112.177 756.365 112.177C755.763 112.177 754.71 112.327 753.808 112.477C745.989 113.981 740.576 120.898 741.478 129.018C741.779 132.176 743.132 135.033 745.237 137.288C749.447 141.8 754.71 143.303 760.725 141.8C768.845 139.995 773.657 132.025 771.853 123.905Z" fill="url(#paint0_linear_615_640)"/>
<defs>
<linearGradient id="paint0_linear_615_640" x1="0" y1="137.614" x2="834.557" y2="137.614" gradientUnits="userSpaceOnUse">
<stop offset="1.11884e-07" stop-color="#D9F4D2"/>
<stop offset="1" stop-color="#58C6FA"/>
</linearGradient>
</defs>
</svg>
