<svg width="831" height="275" viewBox="0 0 831 275" fill="none" xmlns="http://www.w3.org/2000/svg">
<path d="M272.508 135.546C273.406 137.801 274.005 140.505 274.155 143.511H240.765C241.215 137.801 243.011 133.443 246.156 130.287C249.3 127.131 253.043 125.478 257.385 125.478C259.482 125.478 261.578 125.779 263.524 126.53C265.471 127.281 267.268 128.333 268.915 129.836C270.412 131.339 271.61 133.292 272.508 135.546ZM616.138 157.186C609.849 158.388 605.657 160.041 603.261 161.844C600.865 163.798 599.817 166.503 599.817 169.959C599.817 176.12 603.261 179.126 610.298 179.126C613.143 179.126 615.689 178.675 618.084 177.773C620.48 176.872 622.576 175.519 624.223 173.866C625.87 172.213 627.368 170.41 628.416 168.156C629.464 166.052 630.063 163.648 630.063 161.243L630.212 152.227C629.164 153.279 627.517 154.18 625.421 154.932C623.175 155.683 620.031 156.434 616.138 157.186ZM764.67 123.975C765.718 128.183 764.969 131.94 762.274 135.246C760.028 137.951 757.183 139.153 754.338 139.153C747.75 139.153 743.109 134.945 742.21 128.934C741.312 123.224 744.606 117.664 749.697 115.861C756.135 113.607 763.023 117.363 764.67 123.975ZM760.777 134.945C760.627 134.194 760.328 133.593 760.178 132.992C759.878 132.09 759.729 131.189 759.429 130.287C759.13 129.085 758.381 128.183 757.183 127.732L757.034 127.582C757.333 127.432 757.483 127.432 757.782 127.281C758.83 126.831 759.729 126.079 760.178 124.877C760.627 122.923 759.729 120.97 757.782 120.219C756.884 119.918 755.836 119.768 754.937 119.617C752.691 119.467 750.296 119.768 748.05 120.068C748.05 125.178 748.05 130.137 748.05 135.096C749.248 135.096 750.296 135.096 751.493 135.096C751.493 133.142 751.493 131.189 751.493 129.235C752.242 129.235 752.991 129.235 753.59 129.235C755.237 129.385 755.836 129.986 756.135 131.639C756.435 132.691 756.734 133.743 757.034 134.795C757.034 134.945 757.333 135.246 757.483 135.246C758.531 134.945 759.729 134.945 760.777 134.945ZM545.166 129.836C543.669 128.333 541.872 127.281 539.776 126.53C537.829 125.779 535.733 125.478 533.637 125.478C529.295 125.478 525.551 127.131 522.407 130.287C519.263 133.443 517.466 137.951 517.017 143.511H550.406C550.257 140.505 549.808 137.801 548.759 135.546C548.011 133.292 546.813 131.339 545.166 129.836ZM375.073 126.53C361.897 126.53 355.309 134.795 355.309 151.475C355.309 168.156 361.897 176.571 375.073 176.571C388.249 176.571 394.837 168.156 394.837 151.475C394.837 134.945 388.249 126.53 375.073 126.53ZM754.788 122.322C753.739 122.022 752.691 122.022 751.643 122.172C751.494 122.172 751.344 122.322 751.344 122.473C751.344 123.825 751.344 125.027 751.344 126.53C752.542 126.38 753.739 126.38 754.937 126.079C755.985 125.929 756.584 125.027 756.584 124.126C756.435 123.374 755.836 122.623 754.788 122.322ZM831 106.243V256.967C831 266.885 822.915 275 813.032 275H17.9676C8.08541 275 0 266.885 0 256.967V18.0328C0 8.11475 8.08541 0 17.9676 0H687.11C686.511 1.65301 685.912 3.45628 685.612 5.40984C684.415 12.623 685.762 19.6858 689.206 25.5464C687.858 28.2514 686.81 31.2568 686.211 34.4126C683.366 51.0929 694.596 66.8716 711.216 69.7268C713.163 70.0273 714.959 70.1776 716.756 70.1776C717.655 84.0027 727.836 96.0246 742.061 98.429C747.451 99.3306 752.691 98.7295 757.483 97.0765C761.675 105.342 769.611 111.503 779.343 113.156C789.974 114.959 800.305 110.902 807.043 103.388C810.188 105.191 813.631 106.544 817.375 107.145C822.166 107.896 826.808 107.596 831 106.243ZM196.745 192.65L220.252 110.451H197.943L185.515 163.197L172.638 110.451H150.628L139.249 163.197L125.923 110.451H103.164L126.522 192.65H148.682L161.708 144.863L174.735 192.65H196.745ZM240.017 157.186H296.465C296.465 140.806 293.171 128.634 286.732 120.369C280.294 112.254 270.711 108.197 257.984 108.197C251.696 108.197 246.006 109.098 241.215 111.052C236.274 113.005 232.231 115.861 228.787 119.467C225.343 123.074 222.798 127.582 221.001 132.691C219.204 137.801 218.306 143.511 218.306 149.973C218.306 179.877 231.931 194.754 259.332 194.754C268.166 194.754 275.652 192.5 281.941 187.842C288.23 183.333 292.722 176.721 295.267 168.306H272.957C272.209 171.161 270.412 173.415 267.717 175.068C265.022 176.721 261.877 177.473 258.284 177.473C252.894 177.473 248.701 175.669 245.407 171.913C242.113 168.306 240.316 163.347 240.017 157.186ZM325.662 80.2459H303.951V192.5H325.662V80.2459ZM416.698 151.475C416.698 144.863 415.799 139.003 413.853 133.593C411.906 128.183 409.062 123.675 405.468 119.918C401.875 116.161 397.532 113.306 392.442 111.202C387.351 109.098 381.511 108.046 375.073 108.046C368.485 108.046 362.645 109.098 357.555 111.202C352.464 113.306 347.972 116.161 344.378 119.918C340.785 123.675 337.94 128.333 335.994 133.593C334.047 139.003 333.149 144.863 333.149 151.325C333.149 157.637 334.047 163.497 335.994 168.907C337.94 174.317 340.635 178.825 344.229 182.582C347.822 186.339 352.314 189.344 357.405 191.448C362.645 193.552 368.485 194.604 375.223 194.604C381.511 194.604 387.351 193.552 392.442 191.448C397.532 189.344 402.024 186.489 405.618 182.732C409.211 178.975 412.056 174.467 414.003 169.057C415.65 163.948 416.698 158.087 416.698 151.475ZM467.007 192.65L496.504 110.451H473.745L456.376 164.699L439.157 110.451H415.051L444.398 192.65H467.007ZM516.418 157.186H572.866C572.866 140.806 569.572 128.634 563.134 120.369C556.695 112.254 547.112 108.197 534.385 108.197C528.097 108.197 522.407 109.098 517.616 111.052C512.675 113.005 508.632 115.861 505.188 119.467C501.744 123.074 499.199 127.582 497.402 132.691C495.605 137.801 494.707 143.511 494.707 149.973C494.707 179.877 508.332 194.754 535.733 194.754C544.567 194.754 552.054 192.5 558.342 187.842C564.631 183.333 569.123 176.721 571.668 168.306H549.358C548.61 171.161 546.813 173.415 544.118 175.068C541.423 176.721 538.278 177.473 534.685 177.473C529.295 177.473 525.102 175.669 521.808 171.913C518.514 168.306 516.717 163.347 516.418 157.186ZM651.773 140.656C651.773 135.546 651.175 130.888 649.977 126.831C648.779 122.773 646.832 119.317 644.137 116.612C641.442 113.907 637.849 111.803 633.357 110.301C628.865 108.798 623.325 108.197 616.886 108.197C610.298 108.197 604.758 108.948 600.266 110.301C595.775 111.653 592.031 113.607 589.186 116.161C586.342 118.716 584.245 121.721 583.048 125.328C581.7 128.934 581.101 132.842 580.951 137.049H601.165C601.764 133.443 603.111 130.437 605.208 128.183C607.304 125.929 610.897 124.877 615.988 124.877C620.181 124.877 623.624 125.628 626.02 127.131C628.565 128.634 629.763 130.738 629.763 133.443C629.763 136.298 628.865 138.402 626.918 139.754C624.972 141.107 621.378 142.008 615.988 142.91C610.598 143.661 605.507 144.563 600.865 145.464C596.224 146.366 592.331 147.869 589.037 149.822C585.743 151.776 583.048 154.631 581.251 158.087C579.304 161.544 578.406 166.352 578.406 172.213C578.406 178.825 580.652 184.385 584.994 188.443C589.336 192.65 596.224 194.754 605.657 194.754C611.197 194.754 616.138 193.852 620.33 192.199C624.523 190.546 627.966 188.142 630.512 185.287C630.662 188.142 631.111 190.546 631.859 192.65H652.073V140.656H651.773ZM727.836 110.301H682.618V88.2104H661.356V161.694C661.356 166.202 661.955 170.41 663.153 174.467C664.351 178.525 666.297 181.981 668.992 184.986C671.688 187.992 675.131 190.396 679.324 192.199C683.516 194.003 688.607 194.904 694.596 194.904C700.436 194.904 705.377 194.003 709.569 192.199C713.762 190.396 717.205 187.992 719.901 184.986C722.596 181.981 724.542 178.374 725.89 174.467C727.237 170.56 727.836 166.352 727.836 161.995V138.402H707.623V159.74C707.623 164.85 706.575 168.757 704.478 171.612C702.382 174.467 699.238 175.82 694.896 175.82C690.404 175.82 687.259 174.467 685.313 171.612C683.367 168.757 682.468 164.699 682.468 159.44V125.779H727.686V110.301H727.836ZM768.563 123.825C767.065 116.913 760.926 112.104 753.141 112.104C752.542 112.104 751.493 112.254 750.595 112.404C742.809 113.907 737.419 120.82 738.317 128.934C738.617 132.09 739.964 134.945 742.061 137.199C746.253 141.708 751.493 143.21 757.483 141.708C765.568 139.904 770.359 131.94 768.563 123.825Z" fill="white"/>
</svg>
